<?xml version="1.0" encoding="UTF-8" standalone="no"?>
<!-- Created with Inkscape (http://www.inkscape.org/) -->

<svg
   xmlns:dc="http://purl.org/dc/elements/1.1/"
   xmlns:cc="http://creativecommons.org/ns#"
   xmlns:rdf="http://www.w3.org/1999/02/22-rdf-syntax-ns#"
   xmlns:svg="http://www.w3.org/2000/svg"
   xmlns="http://www.w3.org/2000/svg"
   xmlns:sodipodi="http://sodipodi.sourceforge.net/DTD/sodipodi-0.dtd"
   xmlns:inkscape="http://www.inkscape.org/namespaces/inkscape"
   width="250mm"
   height="250mm"
   version="1.1"
   viewBox="0 0 250 250"
   id="svg18"
   sodipodi:docname="lock_final - Copy.svg"
   inkscape:version="0.92.1 r15371">
  <defs
     id="defs22" />
  <sodipodi:namedview
     pagecolor="#ffffff"
     bordercolor="#666666"
     borderopacity="1"
     objecttolerance="10"
     gridtolerance="10"
     guidetolerance="10"
     inkscape:pageopacity="0"
     inkscape:pageshadow="2"
     inkscape:window-width="1366"
     inkscape:window-height="705"
     id="namedview20"
     showgrid="false"
     inkscape:zoom="0.2973261"
     inkscape:cx="-23.031407"
     inkscape:cy="357.72712"
     inkscape:window-x="-8"
     inkscape:window-y="-8"
     inkscape:window-maximized="1"
     inkscape:current-layer="svg18" />
  <metadata
     id="metadata2">
    <rdf:RDF>
      <cc:Work
         rdf:about="">
        <dc:format>image/svg+xml</dc:format>
        <dc:type
           rdf:resource="http://purl.org/dc/dcmitype/StillImage" />
        <dc:title />
      </cc:Work>
    </rdf:RDF>
  </metadata>
  <g
     style="stroke:#000000;stroke-miterlimit:10"
     stroke-miterlimit="10"
     id="g10"
     transform="matrix(1.0867581,0,0,1.1390494,7.2442194,-18.158097)">
    <polygon
       style="fill:#fbae17"
       class="st0"
       transform="matrix(1.5732,0,0,1.3299,-51.599,-11.044)"
       points="120.6,184.5 120.6,80.8 46.5,59.6 46.5,140.6 "
       id="polygon4" />
    <polygon
       style="fill:#fbae17"
       class="st0"
       transform="matrix(1.5732,0,0,1.3299,-51.599,-11.044)"
       points="120.6,184.9 120.6,80.8 153,66.1 153,154.5 "
       id="polygon6" />
    <polygon
       style="fill:#fbb62e"
       class="st1"
       transform="matrix(1.5732,0,0,1.3299,-51.599,-11.044)"
       points="81.1,50.4 46.5,59.4 121.2,80.7 153,66.4 "
       id="polygon8" />
  </g>
  <path
     style="fill:#000000;stroke:#231f20;stroke-width:1.61860549"
     inkscape:connector-curvature="0"
     class="st4"
     d="M 135.81857,4.4691189 C 107.45418,-0.52959939 78.398619,21.131134 69.750198,53.396986 c -0.345904,0.757388 -0.518862,1.514822 -0.518862,2.423669 0.172958,3.786998 4.496788,6.665034 9.685297,6.51354 5.188618,-0.151482 9.512394,-3.332517 9.339491,-6.968021 V 54.911739 C 95.34722,31.28102 114.5448,15.22498 132.53174,18.405206 c 19.02479,3.332517 29.57503,27.115071 23.69459,52.865564 -0.34592,0.605906 -0.51887,1.363328 -0.34592,2.120682 0.17296,3.786998 4.49679,6.665034 9.68541,6.51354 5.18862,-0.151482 9.51239,-3.332516 9.33949,-6.96802 0,-0.302953 0,-0.605906 -0.17296,-0.908871 C 181.13162,39.460398 164.00931,9.6195814 135.81772,4.4688 Z"
     id="path12" />
  <text
     class="st3 st5 st6"
     transform="matrix(0.81577331,0.36342093,-0.18400656,1.1438572,0,0)"
     x="57.336845"
     y="75.395126"
     font-size="35.729px"
     font-weight="bold"
     id="text16"
     style="font-weight:bold;font-size:28.71240234px;font-family:sans-serif;fill:#ffffff;stroke-width:1.10432935">
    <tspan
       font-weight="normal"
       id="tspan14"
       style="font-style:normal;font-variant:normal;font-weight:bold;font-stretch:normal;font-family:sans-serif;-inkscape-font-specification:'sans-serif Bold';stroke-width:1.10432935">PROJECT</tspan>
    <tspan
       font-weight="normal"
       style="font-style:normal;font-variant:normal;font-weight:bold;font-stretch:normal;font-family:sans-serif;-inkscape-font-specification:'sans-serif Bold';stroke-width:1.10432935"
       id="tspan73" />
  </text>
  <text
     class="st3 st5 st6"
     transform="matrix(0.80828444,0.3797856,-0.20701882,1.1399171,0,0)"
     x="69.392464"
     y="105.70842"
     font-size="35.729px"
     font-weight="bold"
     id="text16-4"
     style="font-weight:bold;font-size:28.71240234px;font-family:sans-serif;fill:#ffffff;stroke-width:1.10432935">
    <tspan
       font-weight="normal"
       id="tspan14-5"
       style="font-style:normal;font-variant:normal;font-weight:bold;font-stretch:normal;font-family:sans-serif;-inkscape-font-specification:'sans-serif Bold';stroke-width:1.10432935">PRIVACY</tspan>
  </text>
</svg>
