<?xml version="1.0" encoding="UTF-8" standalone="no"?>
<!-- Created with Inkscape (http://www.inkscape.org/) -->

<svg
   xmlns:dc="http://purl.org/dc/elements/1.1/"
   xmlns:cc="http://creativecommons.org/ns#"
   xmlns:rdf="http://www.w3.org/1999/02/22-rdf-syntax-ns#"
   xmlns:svg="http://www.w3.org/2000/svg"
   xmlns="http://www.w3.org/2000/svg"
   xmlns:sodipodi="http://sodipodi.sourceforge.net/DTD/sodipodi-0.dtd"
   xmlns:inkscape="http://www.inkscape.org/namespaces/inkscape"
   width="210mm"
   height="297mm"
   version="1.1"
   viewBox="0 0 210 297"
   id="svg18"
   sodipodi:docname="Lock_Final.svg"
   inkscape:version="0.92.1 r15371">
  <defs
     id="defs22" />
  <sodipodi:namedview
     pagecolor="#ffffff"
     bordercolor="#666666"
     borderopacity="1"
     objecttolerance="10"
     gridtolerance="10"
     guidetolerance="10"
     inkscape:pageopacity="0"
     inkscape:pageshadow="2"
     inkscape:window-width="640"
     inkscape:window-height="480"
     id="namedview20"
     showgrid="false"
     inkscape:zoom="0.2102413"
     inkscape:cx="174.29775"
     inkscape:cy="458.61819"
     inkscape:window-x="2918"
     inkscape:window-y="354"
     inkscape:window-maximized="0"
     inkscape:current-layer="svg18" />
  <metadata
     id="metadata2">
    <rdf:RDF>
      <cc:Work
         rdf:about="">
        <dc:format>image/svg+xml</dc:format>
        <dc:type
           rdf:resource="http://purl.org/dc/dcmitype/StillImage" />
        <dc:title />
      </cc:Work>
    </rdf:RDF>
  </metadata>
  <g
     id="g300"
     transform="translate(-3.775424,23.911017)">
    <g
       id="g10"
       stroke-miterlimit="10"
       style="stroke:#000000;stroke-miterlimit:10">
      <polygon
         id="polygon4"
         points="46.5,140.6 120.6,184.5 120.6,80.8 46.5,59.6 "
         transform="matrix(1.5732,0,0,1.3299,-51.599,-11.044)"
         class="st0"
         style="fill:#fbae17" />
      <polygon
         id="polygon6"
         points="153,154.5 120.6,184.9 120.6,80.8 153,66.1 "
         transform="matrix(1.5732,0,0,1.3299,-51.599,-11.044)"
         class="st0"
         style="fill:#fbae17" />
      <polygon
         id="polygon8"
         points="153,66.4 81.1,50.4 46.5,59.4 121.2,80.7 "
         transform="matrix(1.5732,0,0,1.3299,-51.599,-11.044)"
         class="st1"
         style="fill:#fbb62e" />
    </g>
    <path
       id="path12"
       d="M 118.31,19.865 C 92.21,15.4765 65.474,34.493 57.516,62.82 c -0.31829,0.66493 -0.47744,1.3299 -0.47744,2.1278 0.15915,3.3247 4.1378,5.8514 8.9121,5.7184 4.7744,-0.13299 8.753,-2.9257 8.5939,-6.1174 v -0.39896 c 6.525,-20.746 24.19,-34.842 40.741,-32.05 17.506,2.9257 27.214,23.805 21.803,46.412 -0.3183,0.53194 -0.47744,1.1969 -0.3183,1.8618 0.15915,3.3247 4.1378,5.8514 8.9122,5.7184 4.7744,-0.13299 8.753,-2.9257 8.5939,-6.1174 0,-0.26597 0,-0.53194 -0.15915,-0.79792 5.8884,-28.592 -9.867,-54.79 -35.808,-59.312 z"
       class="st4"
       inkscape:connector-curvature="0"
       style="fill:#ffffff;stroke:#231f20;stroke-width:1.45480001" />
    <text
       style="font-weight:bold;font-size:35.92131042px;font-family:sans-serif;fill:#ffffff;stroke-width:1.38159657"
       id="text16"
       font-weight="bold"
       font-size="35.729px"
       y="120.22255"
       x="73.116508"
       transform="matrix(0.96223682,0.3627873,-0.39152418,0.89163082,0,0)"
       class="st3 st5 st6">
      <tspan
         style="font-style:normal;font-variant:normal;font-weight:bold;font-stretch:normal;font-family:sans-serif;-inkscape-font-specification:'sans-serif Bold';stroke-width:1.38159657"
         id="tspan14"
         font-weight="normal">MENU</tspan>
    </text>
  </g>
</svg>
