<?xml version="1.0" encoding="UTF-8" standalone="no"?>
<!-- Created with Inkscape (http://www.inkscape.org/) -->

<svg
   xmlns:dc="http://purl.org/dc/elements/1.1/"
   xmlns:cc="http://creativecommons.org/ns#"
   xmlns:rdf="http://www.w3.org/1999/02/22-rdf-syntax-ns#"
   xmlns:svg="http://www.w3.org/2000/svg"
   xmlns="http://www.w3.org/2000/svg"
   xmlns:sodipodi="http://sodipodi.sourceforge.net/DTD/sodipodi-0.dtd"
   xmlns:inkscape="http://www.inkscape.org/namespaces/inkscape"
   id="SVGRoot"
   width="210mm"
   height="85mm"
   version="1.1"
   viewBox="0 0 210 85"
   sodipodi:docname="login.svg"
   inkscape:version="0.92.1 r15371">
  <defs
     id="defs59" />
  <sodipodi:namedview
     pagecolor="#ffffff"
     bordercolor="#666666"
     borderopacity="1"
     objecttolerance="10"
     gridtolerance="10"
     guidetolerance="10"
     inkscape:pageopacity="0"
     inkscape:pageshadow="2"
     inkscape:window-width="1920"
     inkscape:window-height="1017"
     id="namedview57"
     showgrid="false"
     inkscape:zoom="0.65986679"
     inkscape:cx="764.01794"
     inkscape:cy="397.98544"
     inkscape:window-x="1912"
     inkscape:window-y="-8"
     inkscape:window-maximized="1"
     inkscape:current-layer="SVGRoot" />
  <metadata
     id="metadata10">
    <rdf:RDF>
      <cc:Work
         rdf:about="">
        <dc:format>image/svg+xml</dc:format>
        <dc:type
           rdf:resource="http://purl.org/dc/dcmitype/StillImage" />
        <dc:title></dc:title>
      </cc:Work>
    </rdf:RDF>
  </metadata>
  <g
     id="g4553"
     transform="matrix(1.0058152,0,0,0.85784091,-0.81360645,0.58228701)">
    <g
       transform="matrix(3.6195,0,0,4.1367845,-273.50705,-144.91453)"
       id="g42"
       style="fill:#e19c14;stroke-width:0.068161">
      <path
         class="cls-1"
         d="m 131.47,45.935 c 0.0694,-0.11028 0.13628,-0.22146 0.20209,-0.33174 0.0223,-0.0529 0.044,-0.1067 0.0674,-0.1587 v -2.7526 h -46.648 v 3.3174 h 46.187 a 1.0757,1.8614 0 0 1 0.19121,-0.07442 z"
         id="path12"
         inkscape:connector-curvature="0" />
      <path
         class="cls-1"
         d="m 131.53,46.031 c 0.13369,-0.21519 0.28292,-0.38644 0.29225,-0.70922 0.008,-0.30036 0,-0.60521 0,-0.90557 v -1.7242 a 0.078762,0.13628 0 0 0 -0.0777,-0.13449 h -44.752 c -0.60471,0 -1.2136,-0.03317 -1.8183,0 h -0.07721 a 0.078762,0.13628 0 0 0 -0.07773,0.13449 v 3.3174 a 0.078762,0.13628 0 0 0 0.07773,0.13449 h 44.363 c 0.58398,0 1.1757,0.05021 1.7618,0 a 2.1401,3.703 0 0 0 0.27619,-0.0789 c 0.0984,-0.02958 0.0565,-0.2896 -0.0415,-0.25912 -0.45392,0.13808 -0.93272,0.06904 -1.3939,0.06904 h -44.273 c -0.19587,0 -0.42076,-0.0538 -0.61507,0 a 0.51817,0.89661 0 0 1 -0.07824,0 l 0.07773,0.13449 v -3.3174 l -0.07773,0.13449 h 45.947 c 0.19742,0 0.42853,0.05738 0.62181,0 a 0.48242,0.83474 0 0 1 0.0772,0 l -0.0777,-0.13449 v 2.4316 a 0.68244,1.1808 0 0 1 0,0.2645 c -0.0254,0.16498 -0.16737,0.32457 -0.24665,0.4483 -0.0793,0.12373 0.0388,0.30754 0.11193,0.19456 z"
         id="path14"
         inkscape:connector-curvature="0" />
      <path
         class="cls-1"
         d="m 131.47,45.935 q 0.058,-0.08966 0.114,-0.1838 V 42.692 H 84.936 v 3.3174 h 46.342 a 1.0757,1.8614 0 0 1 0.19121,-0.07442 z"
         id="path16"
         inkscape:connector-curvature="0" />
      <path
         class="cls-1"
         d="m 131.53,46.031 c 0.13369,-0.21429 0.13679,-0.24298 0.13679,-0.52272 v -2.8162 a 0.078762,0.13628 0 0 0 -0.0777,-0.13449 h -44.752 c -0.60471,0 -1.2136,-0.03317 -1.8183,0 h -0.07721 a 0.078762,0.13628 0 0 0 -0.07773,0.13449 v 3.3174 a 0.078762,0.13628 0 0 0 0.07773,0.13449 h 44.524 c 0.58243,0 1.1732,0.04752 1.7551,0 a 2.1043,3.6411 0 0 0 0.27566,-0.0789 c 0.0985,-0.02958 0.0565,-0.2896 -0.0415,-0.25912 -0.45288,0.13808 -0.9296,0.06904 -1.3908,0.06904 h -44.423 c -0.19794,0 -0.4249,-0.0538 -0.62181,0 a 0.51817,0.89661 0 0 1 -0.07773,0 l 0.07773,0.13449 v -3.3174 l -0.07773,0.13449 h 45.947 c 0.19743,0 0.42854,0.05738 0.62181,0 a 0.48242,0.83474 0 0 1 0.0772,0 l -0.0777,-0.13449 v 2.6136 a 1.0944,1.8936 0 0 1 0,0.33264 c -0.0176,0.16049 0.003,0.05111 -0.0912,0.20174 -0.072,0.11835 0.0383,0.30395 0.11141,0.19098 z"
         id="path18"
         inkscape:connector-curvature="0" />
      <path
         class="cls-1"
         d="m 131.47,45.935 c 0.0694,-0.11028 0.13628,-0.22146 0.20209,-0.33174 0.0223,-0.0529 0.044,-0.1067 0.0674,-0.1587 v -2.7526 h -46.648 v 3.3174 h 46.187 a 1.0757,1.8614 0 0 1 0.19121,-0.07442 z"
         id="path20"
         inkscape:connector-curvature="0" />
      <path
         class="cls-1"
         d="m 131.53,46.031 c 0.13369,-0.21519 0.28292,-0.38644 0.29225,-0.70922 0.008,-0.30036 0,-0.60521 0,-0.90557 v -1.7242 a 0.078762,0.13628 0 0 0 -0.0777,-0.13449 h -44.752 c -0.60471,0 -1.2136,-0.03317 -1.8183,0 h -0.07721 a 0.078762,0.13628 0 0 0 -0.07773,0.13449 v 3.3174 a 0.078762,0.13628 0 0 0 0.07773,0.13449 h 44.363 c 0.58398,0 1.1757,0.05021 1.7618,0 a 2.1401,3.703 0 0 0 0.27619,-0.0789 c 0.0984,-0.02958 0.0565,-0.2896 -0.0415,-0.25912 -0.45392,0.13808 -0.93272,0.06904 -1.3939,0.06904 h -44.273 c -0.19587,0 -0.42076,-0.0538 -0.61507,0 a 0.51817,0.89661 0 0 1 -0.07824,0 l 0.07773,0.13449 v -3.3174 l -0.07773,0.13449 h 45.947 c 0.19742,0 0.42853,0.05738 0.62181,0 a 0.48242,0.83474 0 0 1 0.0772,0 l -0.0777,-0.13449 v 2.4316 a 0.68244,1.1808 0 0 1 0,0.2645 c -0.0254,0.16498 -0.16737,0.32457 -0.24665,0.4483 -0.0793,0.12373 0.0388,0.30754 0.11193,0.19456 z"
         id="path22"
         inkscape:connector-curvature="0" />
      <path
         class="cls-1"
         d="m 131.47,45.935 c 0.0694,-0.11028 0.13628,-0.22146 0.20209,-0.33174 0.0223,-0.0529 0.044,-0.1067 0.0674,-0.1587 v -2.7526 h -46.648 v 3.3174 h 46.187 a 1.0757,1.8614 0 0 1 0.19121,-0.07442 z"
         id="path24"
         inkscape:connector-curvature="0" />
      <path
         class="cls-1"
         d="m 131.53,46.031 c 0.13369,-0.21519 0.28292,-0.38644 0.29225,-0.70922 0.008,-0.30036 0,-0.60521 0,-0.90557 v -1.7242 a 0.078762,0.13628 0 0 0 -0.0777,-0.13449 h -44.752 c -0.60471,0 -1.2136,-0.03317 -1.8183,0 h -0.07721 a 0.078762,0.13628 0 0 0 -0.07773,0.13449 v 3.3174 a 0.078762,0.13628 0 0 0 0.07773,0.13449 h 44.363 c 0.58398,0 1.1757,0.05021 1.7618,0 a 2.1401,3.703 0 0 0 0.27619,-0.0789 c 0.0984,-0.02958 0.0565,-0.2896 -0.0415,-0.25912 -0.45392,0.13808 -0.93272,0.06904 -1.3939,0.06904 h -44.273 c -0.19587,0 -0.42076,-0.0538 -0.61507,0 a 0.51817,0.89661 0 0 1 -0.07824,0 l 0.07773,0.13449 v -3.3174 l -0.07773,0.13449 h 45.947 c 0.19742,0 0.42853,0.05738 0.62181,0 a 0.48242,0.83474 0 0 1 0.0772,0 l -0.0777,-0.13449 v 2.4316 a 0.68244,1.1808 0 0 1 0,0.2645 c -0.0254,0.16498 -0.16737,0.32457 -0.24665,0.4483 -0.0793,0.12373 0.0388,0.30754 0.11193,0.19456 z"
         id="path26"
         inkscape:connector-curvature="0" />
      <path
         class="cls-1"
         d="m 131.47,45.935 c 0.0694,-0.11028 0.13628,-0.22146 0.20209,-0.33174 0.0223,-0.0529 0.044,-0.1067 0.0674,-0.1587 v -2.7526 h -46.648 v 3.3174 h 46.187 a 1.0757,1.8614 0 0 1 0.19121,-0.07442 z"
         id="path28"
         inkscape:connector-curvature="0" />
      <path
         class="cls-1"
         d="m 131.53,46.031 c 0.13369,-0.21519 0.28292,-0.38644 0.29225,-0.70922 0.008,-0.30036 0,-0.60521 0,-0.90557 v -1.7242 a 0.078762,0.13628 0 0 0 -0.0777,-0.13449 h -44.752 c -0.60471,0 -1.2136,-0.03317 -1.8183,0 h -0.07721 a 0.078762,0.13628 0 0 0 -0.07773,0.13449 v 3.3174 a 0.078762,0.13628 0 0 0 0.07773,0.13449 h 44.363 c 0.58398,0 1.1757,0.05021 1.7618,0 a 2.1401,3.703 0 0 0 0.27619,-0.0789 c 0.0984,-0.02958 0.0565,-0.2896 -0.0415,-0.25912 -0.45392,0.13808 -0.93272,0.06904 -1.3939,0.06904 h -44.273 c -0.19587,0 -0.42076,-0.0538 -0.61507,0 a 0.51817,0.89661 0 0 1 -0.07824,0 l 0.07773,0.13449 v -3.3174 l -0.07773,0.13449 h 45.947 c 0.19742,0 0.42853,0.05738 0.62181,0 a 0.48242,0.83474 0 0 1 0.0772,0 l -0.0777,-0.13449 v 2.4316 a 0.68244,1.1808 0 0 1 0,0.2645 c -0.0254,0.16498 -0.16737,0.32457 -0.24665,0.4483 -0.0793,0.12373 0.0388,0.30754 0.11193,0.19456 z"
         id="path30"
         inkscape:connector-curvature="0" />
      <path
         class="cls-1"
         d="m 131.47,45.935 c 0.0694,-0.11028 0.13628,-0.22146 0.20209,-0.33174 0.0223,-0.0529 0.044,-0.1067 0.0674,-0.1587 v -2.7526 h -46.648 v 3.3174 h 46.187 a 1.0757,1.8614 0 0 1 0.19121,-0.07442 z"
         id="path32"
         inkscape:connector-curvature="0" />
      <path
         class="cls-1"
         d="m 131.53,46.031 c 0.13369,-0.21519 0.28292,-0.38644 0.29225,-0.70922 0.008,-0.30036 0,-0.60521 0,-0.90557 v -1.7242 a 0.078762,0.13628 0 0 0 -0.0777,-0.13449 h -44.752 c -0.60471,0 -1.2136,-0.03317 -1.8183,0 h -0.07721 a 0.078762,0.13628 0 0 0 -0.07773,0.13449 v 3.3174 a 0.078762,0.13628 0 0 0 0.07773,0.13449 h 44.363 c 0.58398,0 1.1757,0.05021 1.7618,0 a 2.1401,3.703 0 0 0 0.27619,-0.0789 c 0.0984,-0.02958 0.0565,-0.2896 -0.0415,-0.25912 -0.45392,0.13808 -0.93272,0.06904 -1.3939,0.06904 h -44.273 c -0.19587,0 -0.42076,-0.0538 -0.61507,0 a 0.51817,0.89661 0 0 1 -0.07824,0 l 0.07773,0.13449 v -3.3174 l -0.07773,0.13449 h 45.947 c 0.19742,0 0.42853,0.05738 0.62181,0 a 0.48242,0.83474 0 0 1 0.0772,0 l -0.0777,-0.13449 v 2.4316 a 0.68244,1.1808 0 0 1 0,0.2645 c -0.0254,0.16498 -0.16737,0.32457 -0.24665,0.4483 -0.0793,0.12373 0.0388,0.30754 0.11193,0.19456 z"
         id="path34"
         inkscape:connector-curvature="0" />
      <path
         class="cls-1"
         d="m 131.45,39.834 a 1.0939,1.8927 0 0 1 -0.10363,-0.2376 1.1032,1.9089 0 0 1 -0.10052,-0.22146 h -46.305 v 3.3174 h 46.648 v -2.3904 a 2.1613,3.7397 0 0 1 -0.13888,-0.46803 z"
         id="path36"
         inkscape:connector-curvature="0" />
      <path
         class="cls-1"
         d="m 131.5,39.739 c -0.10363,-0.21788 -0.15234,-0.47072 -0.3109,-0.49851 -0.0684,-0.01166 -0.14095,0 -0.20727,0 h -44.148 c -0.60523,0 -1.2141,-0.03317 -1.8193,0 H 84.9368 a 0.078762,0.13628 0 0 0 -0.07773,0.13449 v 3.3174 a 0.078762,0.13628 0 0 0 0.07773,0.13449 h 44.752 c 0.60471,0 1.2136,0.03317 1.8183,0 h 0.0772 a 0.078762,0.13628 0 0 0 0.0777,-0.13449 v -2.2442 c 0,-0.26091 -0.0871,-0.44113 -0.14923,-0.68142 -0.041,-0.1578 -0.17462,-0.02062 -0.13421,0.13539 0.0668,0.25912 0.12799,0.37658 0.12799,0.64914 v 2.1411 l 0.0777,-0.13449 h -45.948 c -0.19742,0 -0.42853,-0.05738 -0.62181,0 a 0.48242,0.83474 0 0 1 -0.07721,0 l 0.07773,0.13449 v -3.3174 l -0.07825,0.13449 h 45.659 c 0.17566,0 0.41454,-0.07263 0.58398,0 0.014,0.0063 0.0357,-0.0099 0.0487,0 h 0.009 c 0.013,0.01255 -0.10364,-0.10042 -0.008,0.02331 0.0274,0.03586 0.11918,0.31023 0.16063,0.3963 0.0648,0.1327 0.17411,-0.06097 0.11037,-0.19008 z"
         id="path38"
         inkscape:connector-curvature="0" />
      <ellipse
         class="cls-2"
         cx="131.13"
         cy="42.737"
         rx="2.0467999"
         ry="3.4519"
         stroke-miterlimit="10"
         id="ellipse40"
         style="stroke:#e19c14;stroke-miterlimit:10" />
    </g>
    <path
       class="cls-3"
       d="m 201.51613,17.97136 a 0.8346205,1.6505356 0 0 0 -0.35435,-0.229964 c -0.24757,-0.04824 -0.51017,0 -0.75021,0 H 40.617881 c -2.19063,0 -4.394435,-0.137217 -6.584956,0 h -0.281344 a 0.28507906,0.56376099 0 0 0 -0.281344,0.556356 v 27.447151 a 0.28507906,0.56376099 0 0 0 0.281344,0.556357 H 194.8881 c 1.71047,0 3.43972,0.133535 5.15598,0.07421 a 7.6613956,15.151387 0 0 0 0.9115,0.111279 c 4.09257,0 7.40839,-6.394641 7.40839,-14.279766 0,-7.525639 -3.0196,-13.686552 -6.84556,-14.235503 z"
       id="path44"
       inkscape:connector-curvature="0"
       style="fill:#fbae17;stroke:#000000;stroke-width:1" />
    <path
       class="cls-4"
       d="m 33.393975,1.8916783 a 23.468476,46.410585 0 0 1 -5.146568,2.7224593 30.8975,61.104444 0 0 1 -8.45479,1.8322646 c -4.942065,0 -9.9738938,-1.546661 -14.5467701,-5.3745104 L 3.4959634,11.728249 A 30.34625,60.012333 0 0 0 14.520237,78.826893 l 4.733944,6.798806 4.733944,-6.798806 A 30.34625,60.012333 0 0 0 35.012398,11.728249 Z"
       id="path46"
       inkscape:connector-curvature="0"
       style="fill:#fbae17;stroke:#000000;stroke-width:1" />
    <path
       class="cls-5"
       d="m 29.307559,13.921448 a 16.667798,32.962313 0 0 1 -3.655333,1.932416 21.943581,43.394869 0 0 1 -6.001855,1.301887 c -3.509105,0 -7.083723,-1.112712 -10.3304149,-3.816638 l -1.2434792,7.566592 a 21.551589,42.621291 0 0 0 7.8286161,47.655757 l 3.36096,4.821836 3.360959,-4.821836 a 21.551589,42.621291 0 0 0 7.834045,-47.655757 z"
       id="path48"
       inkscape:connector-curvature="0"
       style="fill:#e6e6e6;stroke:#000000;stroke-width:1" />
    <path
       class="cls-3"
       d="M 35.008271,11.728952 33.393432,1.8962288 A 23.468476,46.410585 0 0 1 28.246865,4.618688 30.8975,61.104444 0 0 1 19.792074,6.4509526 c -4.942065,0 -9.9742557,-1.546661 -14.54677,-5.3745104 L 3.4935746,11.729076 A 30.34625,60.012333 0 0 0 14.517848,78.827721 l 4.733944,6.798805 4.733944,-6.798805 A 30.34625,60.012333 0 0 0 35.008199,11.729076 Z"
       id="path50"
       inkscape:connector-curvature="0"
       style="fill:none;stroke:#808080;stroke-width:0.26374954" />
    <text
       class="cls-6"
       transform="scale(0.71110473,1.4062626)"
       x="96.379547"
       y="68.603836"
       font-size="11.928px"
       font-weight="700"
       letter-spacing=".02em"
       stroke-miterlimit="10"
       id="text52"
       style="font-weight:700;font-size:46.15533829px;font-family:AgencyFB-Bold, 'Agency FB';letter-spacing:0.02em;fill:#fbae17;stroke:#000000;stroke-width:1;stroke-miterlimit:10">LOGIN HERE</text>
  </g>
</svg>
