<?xml version="1.0" encoding="UTF-8" standalone="no"?>
<svg
   xmlns:dc="http://purl.org/dc/elements/1.1/"
   xmlns:cc="http://creativecommons.org/ns#"
   xmlns:rdf="http://www.w3.org/1999/02/22-rdf-syntax-ns#"
   xmlns:svg="http://www.w3.org/2000/svg"
   xmlns="http://www.w3.org/2000/svg"
   xmlns:xlink="http://www.w3.org/1999/xlink"
   xml:space="preserve"
   style="enable-background:new 0 0 200 200;"
   viewBox="0 0 200 200"
   y="0px"
   x="0px"
   id="Layer_1"
   version="1.1"><metadata
     id="metadata8687"><rdf:RDF><cc:Work
         rdf:about=""><dc:format>image/svg+xml</dc:format><dc:type
           rdf:resource="http://purl.org/dc/dcmitype/StillImage" /><dc:title></dc:title></cc:Work></rdf:RDF></metadata><defs
     id="defs8685"><defs
       id="defs8513"><rect
         y="0"
         x="0"
         id="SVGID_1_"
         width="200"
         height="200" /></defs><clipPath
       id="SVGID_2_"><use
         height="100%"
         width="100%"
         y="0"
         x="0"
         xlink:href="#SVGID_1_"
         style="overflow:visible"
         id="use8515" /></clipPath></defs><style
     id="style8508"
     type="text/css">
	.st0{fill:#FFFFFF;}
	.st1{clip-path:url(#SVGID_2_);fill:none;stroke:#2B2B2B;stroke-miterlimit:10;}
	.st2{clip-path:url(#SVGID_2_);fill:none;stroke:#593D21;stroke-width:0.25;stroke-miterlimit:10;}
	.st3{clip-path:url(#SVGID_2_);fill:#FFFFFF;}
	.st4{clip-path:url(#SVGID_2_);fill:none;stroke:#000000;stroke-miterlimit:10;}
	.st5{clip-path:url(#SVGID_2_);fill:none;stroke:#E19C14;stroke-miterlimit:10;}
	.st6{clip-path:url(#SVGID_2_);fill:none;stroke:#000000;stroke-width:2;stroke-miterlimit:10;}
	.st7{clip-path:url(#SVGID_2_);fill:#E19C14;}
	.st8{clip-path:url(#SVGID_2_);fill:none;stroke:#444444;stroke-miterlimit:10;}
	.st9{clip-path:url(#SVGID_2_);}
	.st10{clip-path:url(#SVGID_2_);fill:none;stroke:#000000;stroke-width:0.25;stroke-miterlimit:10;}
	.st11{clip-path:url(#SVGID_2_);fill:none;stroke:#E19C14;stroke-width:3;stroke-miterlimit:10;}
	.st12{clip-path:url(#SVGID_2_);fill:none;stroke:#2B2B2B;stroke-width:0.75;stroke-miterlimit:10;}
	.st13{clip-path:url(#SVGID_2_);fill:#E19C14;stroke:#E19C14;stroke-miterlimit:10;}
	.st14{fill:none;stroke:#000000;stroke-miterlimit:10;}
	.st15{fill:none;stroke:#E19C14;stroke-width:1.25;stroke-miterlimit:10;}
</style><g
     transform="translate(8.9886455,5.9924304)"
     id="g11093"><rect
       style="opacity:1;fill:#ffffff;fill-opacity:1;stroke:#000000;stroke-width:0.74194723;stroke-miterlimit:4;stroke-dasharray:none"
       id="rect11011"
       width="16.474264"
       height="70.572655"
       x="153.63019"
       y="-12.259966"
       transform="matrix(0.82583008,0.56391903,-0.70092931,0.71323075,0,0)" /><path
       id="path8522"
       clip-path="url(#SVGID_2_)"
       d="m 53.1,152.4 c -2.9,-0.1 -5.3,1.6 -5.3,3.8"
       class="st2"
       style="fill:none;stroke:#593d21;stroke-width:0.25;stroke-miterlimit:10"
       transform="matrix(1.2982472,0,0,1.2190265,-3.8968478,-41.196007)" /><path
       id="path8524"
       clip-path="url(#SVGID_2_)"
       d="M 69.8,113.7 C 64.9,109.4 59.4,107 53.7,107 c -5.8,0 -11.3,2.5 -16.3,6.9 4.8,2.3 10.3,3.6 16,3.6 6,0 11.5,-1.4 16.4,-3.8"
       class="st3"
       style="fill:#ffffff"
       transform="matrix(1.2982472,0,0,1.2190265,-3.8968478,-41.196007)" /><path
       id="path8526"
       clip-path="url(#SVGID_2_)"
       d="M 69.8,113.7 C 64.9,109.4 59.4,107 53.7,107 c -5.8,0 -11.3,2.5 -16.3,6.9 4.8,2.3 10.3,3.6 16,3.6 6,0 11.5,-1.4 16.4,-3.8 z"
       class="st4"
       style="fill:none;stroke:#000000;stroke-miterlimit:10"
       transform="matrix(1.2982472,0,0,1.2190265,-3.8968478,-41.196007)" /><path
       id="path8528"
       clip-path="url(#SVGID_2_)"
       d="m 42.5,119.5 c 0,0 10.5,53.2 11,68 v 0 c 0.5,-14.8 11,-68 11,-68 0,0 1.9,-3.1 5.8,-5.4 -0.1,-0.1 -0.3,-0.3 -0.4,-0.4 -4.9,2.4 -10.5,3.8 -16.3,3.8 -5.7,0 -11.2,-1.3 -16,-3.6 -0.2,0.1 -0.3,0.3 -0.5,0.4 3.6,2.3 5.4,5.2 5.4,5.2"
       class="st3"
       style="fill:#ffffff"
       transform="matrix(1.2982472,0,0,1.2190265,-3.8968478,-41.196007)" /><path
       id="path8530"
       clip-path="url(#SVGID_2_)"
       d="m 42.5,119.5 c 0,0 10.5,53.2 11,68 v 0 c 0.5,-14.8 11,-68 11,-68 0,0 1.9,-3.1 5.8,-5.4 -0.1,-0.1 -0.3,-0.3 -0.4,-0.4 -4.9,2.4 -10.5,3.8 -16.3,3.8 -5.7,0 -11.2,-1.3 -16,-3.6 -0.2,0.1 -0.3,0.3 -0.5,0.4 3.6,2.3 5.4,5.2 5.4,5.2 z"
       class="st4"
       style="fill:none;stroke:#000000;stroke-miterlimit:10"
       transform="matrix(1.2982472,0,0,1.2190265,-3.8968478,-41.196007)" /><path
       id="path8532"
       clip-path="url(#SVGID_2_)"
       d="m 64.5,119.5 c 0,0 -10.5,53.2 -11,68 H 94 c 0,-32.7 -9.7,-60.8 -23.7,-73.4 -3.9,2.3 -5.8,5.4 -5.8,5.4"
       class="st3"
       style="fill:#ffffff"
       transform="matrix(1.2982472,0,0,1.2190265,-3.8968478,-41.196007)" /><path
       id="path8534"
       clip-path="url(#SVGID_2_)"
       d="m 64.5,119.5 c 0,0 -10.5,53.2 -11,68 H 94 c 0,-32.7 -9.7,-60.8 -23.7,-73.4 -3.9,2.3 -5.8,5.4 -5.8,5.4 z"
       class="st4"
       style="fill:none;stroke:#000000;stroke-miterlimit:10"
       transform="matrix(1.2982472,0,0,1.2190265,-3.8968478,-41.196007)" /><path
       id="path8536"
       clip-path="url(#SVGID_2_)"
       d="m 13.5,187.5 h 40 c -0.5,-14.8 -11,-68 -11,-68 0,0 -1.8,-2.9 -5.5,-5.2 C 23.1,127 13.5,155 13.5,187.5"
       class="st3"
       style="fill:#ffffff"
       transform="matrix(1.2982472,0,0,1.2190265,-3.8968478,-41.196007)" /><path
       id="path8538"
       clip-path="url(#SVGID_2_)"
       d="m 13.5,187.5 h 40 c -0.5,-14.8 -11,-68 -11,-68 0,0 -1.8,-2.9 -5.5,-5.2 C 23.1,127 13.5,155 13.5,187.5 Z"
       class="st4"
       style="fill:none;stroke:#000000;stroke-miterlimit:10"
       transform="matrix(1.2982472,0,0,1.2190265,-3.8968478,-41.196007)" /><path
       id="path8540"
       clip-path="url(#SVGID_2_)"
       d="m 88.5,81 c 0,19.3 -15.7,35 -35,35 -19.3,0 -35,-15.7 -35,-35 0,-19.3 15.7,-35 35,-35 19.3,0 35,15.7 35,35"
       class="st3"
       style="fill:#ffffff"
       transform="matrix(1.2982472,0,0,1.2190265,-3.8968478,-41.196007)" /><path
       id="path8542"
       clip-path="url(#SVGID_2_)"
       d="m 49.3,80.8 c 1.1,11.3 9.7,14 10,0 z"
       class="st5"
       style="fill:none;stroke:#e19c14;stroke-miterlimit:10"
       transform="matrix(1.2982472,0,0,1.2190265,-3.8968478,-41.196007)" /><circle
       id="circle8544"
       clip-path="url(#SVGID_2_)"
       r="35"
       cy="82.5"
       cx="53.5"
       class="st6"
       style="fill:none;stroke:#000000;stroke-width:2;stroke-miterlimit:10"
       transform="matrix(1.2982472,0,0,1.2190265,-3.8968478,-41.196007)" /><path
       id="path8546"
       clip-path="url(#SVGID_2_)"
       d="M 46.7,70.4 C 42.9,66.8 36.1,67.9 31.5,72.8"
       class="st4"
       style="fill:none;stroke:#000000;stroke-miterlimit:10"
       transform="matrix(1.2982472,0,0,1.2190265,-3.8968478,-41.196007)" /><path
       id="path8548"
       clip-path="url(#SVGID_2_)"
       d="M 76.1,72.6 C 73.5,68.1 66.7,67.1 60.8,70.4"
       class="st4"
       style="fill:none;stroke:#000000;stroke-miterlimit:10"
       transform="matrix(1.2982472,0,0,1.2190265,-3.8968478,-41.196007)" /><ellipse
       id="ellipse8550"
       clip-path="url(#SVGID_2_)"
       ry="4"
       rx="6"
       cy="74.5"
       cx="40.099998"
       class="st4"
       style="fill:none;stroke:#000000;stroke-miterlimit:10"
       transform="matrix(1.2982472,0,0,1.2190265,-3.8968478,-41.196007)" /><path
       id="path8552"
       clip-path="url(#SVGID_2_)"
       d="m 43.6,74.5 c 0,1.9 -1.6,3.5 -3.5,3.5 -1.9,0 -3.5,-1.6 -3.5,-3.5 0,-1.9 1.6,-3.5 3.5,-3.5 1.9,0 3.5,1.6 3.5,3.5"
       class="st7"
       style="fill:#e19c14"
       transform="matrix(1.2982472,0,0,1.2190265,-3.8968478,-41.196007)" /><ellipse
       id="ellipse8554"
       clip-path="url(#SVGID_2_)"
       ry="4"
       rx="6"
       cy="74.5"
       cx="68.5"
       class="st4"
       style="fill:none;stroke:#000000;stroke-miterlimit:10"
       transform="matrix(1.2982472,0,0,1.2190265,-3.8968478,-41.196007)" /><path
       id="path8556"
       clip-path="url(#SVGID_2_)"
       d="M 72,74.5 C 72,76.4 70.4,78 68.5,78 66.6,78 65,76.4 65,74.5 65,72.6 66.6,71 68.5,71 c 1.9,0 3.5,1.6 3.5,3.5"
       class="st7"
       style="fill:#e19c14"
       transform="matrix(1.2982472,0,0,1.2190265,-3.8968478,-41.196007)" /><path
       id="path8558"
       clip-path="url(#SVGID_2_)"
       d="m 50.4,71.4 c 2.6,-1.5 5.2,-1.6 7.6,0"
       class="st8"
       style="fill:none;stroke:#444444;stroke-miterlimit:10"
       transform="matrix(1.2982472,0,0,1.2190265,-3.8968478,-41.196007)" /><rect
       id="rect8560"
       clip-path="url(#SVGID_2_)"
       height="14.5"
       width="21.4"
       class="st8"
       y="66"
       x="58.099998"
       style="fill:none;stroke:#444444;stroke-miterlimit:10"
       transform="matrix(1.2982472,0,0,1.2190265,-3.8968478,-41.196007)" /><rect
       id="rect8562"
       clip-path="url(#SVGID_2_)"
       height="14.5"
       width="21.4"
       class="st8"
       y="66"
       x="29.1"
       style="fill:none;stroke:#444444;stroke-miterlimit:10"
       transform="matrix(1.2982472,0,0,1.2190265,-3.8968478,-41.196007)" /><path
       id="path8564"
       clip-path="url(#SVGID_2_)"
       d="M 28.8,74 C 26.3,75.7 20.4,71.5 15.6,64.6"
       class="st8"
       style="fill:none;stroke:#444444;stroke-miterlimit:10"
       transform="matrix(1.2982472,0,0,1.2190265,-3.8968478,-41.196007)" /><path
       id="path8566"
       clip-path="url(#SVGID_2_)"
       d="m 79.8,74 c 2.2,1.5 7.6,-2.3 11.9,-8.5"
       class="st8"
       style="fill:none;stroke:#444444;stroke-miterlimit:10"
       transform="matrix(1.2982472,0,0,1.2190265,-3.8968478,-41.196007)" /><path
       id="path8568"
       clip-path="url(#SVGID_2_)"
       d="m 50.4,74.4 c 2.6,-1.5 5.2,-1.6 7.6,0"
       class="st8"
       style="fill:none;stroke:#444444;stroke-miterlimit:10"
       transform="matrix(1.2982472,0,0,1.2190265,-3.8968478,-41.196007)" /><line
       id="line8570"
       clip-path="url(#SVGID_2_)"
       y2="94"
       x2="57.099998"
       y1="104"
       x1="56.900002"
       class="st9"
       transform="matrix(1.2982472,0,0,1.2190265,-3.8968478,-41.196007)" /><line
       id="line8572"
       clip-path="url(#SVGID_2_)"
       y2="94"
       x2="57.099998"
       y1="104"
       x1="56.900002"
       class="st10"
       style="fill:none;stroke:#000000;stroke-width:0.25;stroke-miterlimit:10"
       transform="matrix(1.2982472,0,0,1.2190265,-3.8968478,-41.196007)" /><line
       id="line8574"
       clip-path="url(#SVGID_2_)"
       y2="93"
       x2="63"
       y1="103"
       x1="63"
       class="st9"
       transform="matrix(1.2982472,0,0,1.2190265,-3.8968478,-41.196007)" /><line
       id="line8576"
       clip-path="url(#SVGID_2_)"
       y2="93"
       x2="63"
       y1="103"
       x1="63"
       class="st10"
       style="fill:none;stroke:#000000;stroke-width:0.25;stroke-miterlimit:10"
       transform="matrix(1.2982472,0,0,1.2190265,-3.8968478,-41.196007)" /><line
       id="line8578"
       clip-path="url(#SVGID_2_)"
       y2="104"
       x2="60"
       y1="94"
       x1="60"
       class="st9"
       transform="matrix(1.2982472,0,0,1.2190265,-3.8968478,-41.196007)" /><line
       id="line8580"
       clip-path="url(#SVGID_2_)"
       y2="104"
       x2="60"
       y1="94"
       x1="60"
       class="st10"
       style="fill:none;stroke:#000000;stroke-width:0.25;stroke-miterlimit:10"
       transform="matrix(1.2982472,0,0,1.2190265,-3.8968478,-41.196007)" /><line
       id="line8582"
       clip-path="url(#SVGID_2_)"
       y2="98"
       x2="66"
       y1="98"
       x1="42"
       class="st9"
       transform="matrix(1.2982472,0,0,1.2190265,-3.8968478,-41.196007)" /><line
       id="line8584"
       clip-path="url(#SVGID_2_)"
       y2="98"
       x2="66"
       y1="98"
       x1="42"
       class="st10"
       style="fill:none;stroke:#000000;stroke-width:0.25;stroke-miterlimit:10"
       transform="matrix(1.2982472,0,0,1.2190265,-3.8968478,-41.196007)" /><line
       id="line8586"
       clip-path="url(#SVGID_2_)"
       y2="94"
       x2="53.900002"
       y1="104"
       x1="54"
       class="st9"
       transform="matrix(1.2982472,0,0,1.2190265,-3.8968478,-41.196007)" /><line
       id="line8588"
       clip-path="url(#SVGID_2_)"
       y2="94"
       x2="53.900002"
       y1="104"
       x1="54"
       class="st10"
       style="fill:none;stroke:#000000;stroke-width:0.25;stroke-miterlimit:10"
       transform="matrix(1.2982472,0,0,1.2190265,-3.8968478,-41.196007)" /><line
       id="line8590"
       clip-path="url(#SVGID_2_)"
       y2="94"
       x2="48"
       y1="103"
       x1="48"
       class="st9"
       transform="matrix(1.2982472,0,0,1.2190265,-3.8968478,-41.196007)" /><line
       id="line8592"
       clip-path="url(#SVGID_2_)"
       y2="94"
       x2="48"
       y1="103"
       x1="48"
       class="st10"
       style="fill:none;stroke:#000000;stroke-width:0.25;stroke-miterlimit:10"
       transform="matrix(1.2982472,0,0,1.2190265,-3.8968478,-41.196007)" /><line
       id="line8594"
       clip-path="url(#SVGID_2_)"
       y2="104"
       x2="51"
       y1="94"
       x1="51"
       class="st9"
       transform="matrix(1.2982472,0,0,1.2190265,-3.8968478,-41.196007)" /><line
       id="line8596"
       clip-path="url(#SVGID_2_)"
       y2="104"
       x2="51"
       y1="94"
       x1="51"
       class="st10"
       style="fill:none;stroke:#000000;stroke-width:0.25;stroke-miterlimit:10"
       transform="matrix(1.2982472,0,0,1.2190265,-3.8968478,-41.196007)" /><line
       id="line8598"
       clip-path="url(#SVGID_2_)"
       y2="94"
       x2="44.900002"
       y1="102.1"
       x1="44.900002"
       class="st9"
       transform="matrix(1.2982472,0,0,1.2190265,-3.8968478,-41.196007)" /><line
       id="line8600"
       clip-path="url(#SVGID_2_)"
       y2="94"
       x2="44.900002"
       y1="102.1"
       x1="44.900002"
       class="st10"
       style="fill:none;stroke:#000000;stroke-width:0.25;stroke-miterlimit:10"
       transform="matrix(1.2982472,0,0,1.2190265,-3.8968478,-41.196007)" /><path
       id="path8602"
       clip-path="url(#SVGID_2_)"
       d="m 64.8,101.7 c -1.5,3.2 -20.3,2.8 -21.3,-0.2 -0.9,-2.6 -3.1,-10 -0.4,-8.7 5.4,2.7 20.2,1.3 21.7,0 2.7,-2.3 0.5,8 0,8.9 z"
       class="st11"
       style="fill:none;stroke:#e19c14;stroke-width:3;stroke-miterlimit:10"
       transform="matrix(1.2982472,0,0,1.2190265,-3.8968478,-41.196007)" /><path
       id="path8604"
       clip-path="url(#SVGID_2_)"
       d="m 55.1,122.6 c -3.6,-0.1 -6.6,2.3 -6.7,5.4"
       class="st2"
       style="fill:none;stroke:#593d21;stroke-width:0.25;stroke-miterlimit:10"
       transform="matrix(1.2982472,0,0,1.2190265,-3.8968478,-41.196007)" /><path
       id="path8606"
       clip-path="url(#SVGID_2_)"
       d="m 53.7,130.4 c 3.5,0.1 6.3,2.2 6.2,4.8"
       class="st2"
       style="fill:none;stroke:#593d21;stroke-width:0.25;stroke-miterlimit:10"
       transform="matrix(1.2982472,0,0,1.2190265,-3.8968478,-41.196007)" /><path
       id="path8608"
       clip-path="url(#SVGID_2_)"
       d="m 54.7,141.4 c -2.5,-0.1 -4.6,2.4 -4.7,5.4"
       class="st2"
       style="fill:none;stroke:#593d21;stroke-width:0.25;stroke-miterlimit:10"
       transform="matrix(1.2982472,0,0,1.2190265,-3.8968478,-41.196007)" /><path
       id="path8610"
       clip-path="url(#SVGID_2_)"
       d="m 51,156.5 c 2.5,0.1 4.5,1.9 4.5,4"
       class="st2"
       style="fill:none;stroke:#593d21;stroke-width:0.25;stroke-miterlimit:10"
       transform="matrix(1.2982472,0,0,1.2190265,-3.8968478,-41.196007)" /><path
       id="path8612"
       clip-path="url(#SVGID_2_)"
       d="m 53,135 c 3.3,0.1 6,2.4 5.9,5.3"
       class="st2"
       style="fill:none;stroke:#593d21;stroke-width:0.25;stroke-miterlimit:10"
       transform="matrix(1.2982472,0,0,1.2190265,-3.8968478,-41.196007)" /><path
       id="path8614"
       clip-path="url(#SVGID_2_)"
       d="m 115,60.8 c -0.7,5.1 -0.2,12.9 1.3,21.4 L 123,81 c -0.4,-9.1 -3.7,-16.8 -8,-20.2 z"
       class="st12"
       style="fill:#ffffff;stroke:#2b2b2b;stroke-width:0.75;stroke-miterlimit:10"
       transform="matrix(0.89462478,0.88338505,-0.9407935,0.84003361,108.37701,-93.991402)" /><path
       id="path8616"
       clip-path="url(#SVGID_2_)"
       d="m 123.9,80.7 5.3,-1 c -1.5,-8 -3.7,-15 -6,-19.5 -1.8,5.1 -1.7,12.7 0.7,20.5 z"
       class="st12"
       style="fill:#ffffff;stroke:#2b2b2b;stroke-width:0.75;stroke-miterlimit:10"
       transform="matrix(0.89462478,0.88338505,-0.9407935,0.84003361,108.46648,-93.903064)" /><path
       id="path8618"
       clip-path="url(#SVGID_2_)"
       d="m 123.3,60.2 c -1.9,-3.7 -3.8,-5.9 -5.4,-5.6 -1.5,0.3 -2.5,2.5 -2.9,6.1 4.3,3.5 7.6,11.1 8,20.1 l 0.9,-0.2 c -2.4,-7.7 -2.5,-15.3 -0.6,-20.4 z"
       class="st12"
       style="fill:#ffffff;stroke:#2b2b2b;stroke-width:0.75;stroke-miterlimit:10"
       transform="matrix(0.89462478,0.88338505,-0.9407935,0.84003361,108.37701,-93.991402)" /><line
       id="line8620"
       clip-path="url(#SVGID_2_)"
       y2="80.5"
       x2="123.5"
       y1="78.5"
       x1="123.2"
       class="st12"
       style="fill:#ffffff;stroke:#2b2b2b;stroke-width:0.75;stroke-miterlimit:10"
       transform="matrix(0.89462478,0.88338505,-0.9407935,0.84003361,108.37701,-93.991402)" /><line
       id="line8622"
       clip-path="url(#SVGID_2_)"
       y2="60"
       x2="136.8"
       y1="59.599998"
       x1="127.8"
       class="st13"
       style="fill:#e19c14;stroke:#e19c14;stroke-miterlimit:10"
       transform="matrix(0.89462478,0.88338505,-0.9407935,0.84003361,108.37701,-93.991402)" /><line
       id="line8624"
       clip-path="url(#SVGID_2_)"
       y2="64"
       x2="138.7"
       y1="63.599998"
       x1="129.7"
       class="st13"
       style="fill:#e19c14;stroke:#e19c14;stroke-miterlimit:10"
       transform="matrix(0.89462478,0.88338505,-0.9407935,0.84003361,108.37701,-93.991402)" /><line
       id="line8626"
       clip-path="url(#SVGID_2_)"
       y2="68.099998"
       x2="139.7"
       y1="67.699997"
       x1="130.7"
       class="st13"
       style="fill:#e19c14;stroke:#e19c14;stroke-miterlimit:10"
       transform="matrix(0.89462478,0.88338505,-0.9407935,0.84003361,108.37701,-93.991402)" /><line
       id="line8628"
       clip-path="url(#SVGID_2_)"
       y2="72"
       x2="140.5"
       y1="71.599998"
       x1="131.5"
       class="st13"
       style="fill:#e19c14;stroke:#e19c14;stroke-miterlimit:10"
       transform="matrix(0.98602294,0.79298108,-0.84451446,0.92585453,101.91774,-97.092438)" /><line
       id="line8630"
       clip-path="url(#SVGID_2_)"
       y2="75.400002"
       x2="141.39999"
       y1="75"
       x1="132.3"
       class="st13"
       style="fill:#e19c14;stroke:#e19c14;stroke-miterlimit:10"
       transform="matrix(0.89462478,0.88338505,-0.9407935,0.84003361,108.37701,-93.991402)" /><line
       id="line8632"
       clip-path="url(#SVGID_2_)"
       y2="79"
       x2="112"
       y1="82.099998"
       x1="103.5"
       class="st13"
       style="fill:#e19c14;stroke:#e19c14;stroke-miterlimit:10"
       transform="matrix(0.89462478,0.88338505,-0.9407935,0.84003361,108.37701,-93.991402)" /><line
       id="line8634"
       clip-path="url(#SVGID_2_)"
       y2="74.599998"
       x2="112.6"
       y1="77.800003"
       x1="104.1"
       class="st13"
       style="fill:#e19c14;stroke:#e19c14;stroke-miterlimit:10"
       transform="matrix(0.89462478,0.88338505,-0.9407935,0.84003361,108.37701,-93.991402)" /><line
       id="line8636"
       clip-path="url(#SVGID_2_)"
       y2="70.5"
       x2="112.3"
       y1="73.599998"
       x1="103.8"
       class="st13"
       style="fill:#e19c14;stroke:#e19c14;stroke-miterlimit:10"
       transform="matrix(0.89462478,0.88338505,-0.9407935,0.84003361,108.37701,-93.991402)" /><line
       id="line8638"
       clip-path="url(#SVGID_2_)"
       y2="66.5"
       x2="111.8"
       y1="69.599998"
       x1="103.3"
       class="st13"
       style="fill:#e19c14;stroke:#e19c14;stroke-miterlimit:10"
       transform="matrix(0.89462478,0.88338505,-0.9407935,0.84003361,108.37701,-93.991402)" /><line
       id="line8640"
       clip-path="url(#SVGID_2_)"
       y2="63"
       x2="111.6"
       y1="66.099998"
       x1="103.1"
       class="st13"
       style="fill:#e19c14;stroke:#e19c14;stroke-miterlimit:10"
       transform="matrix(0.89462478,0.88338505,-0.9407935,0.84003361,108.37701,-93.991402)" /><line
       style="fill:#ffffff;stroke:#000000;stroke-width:1.25801349;stroke-miterlimit:10"
       class="st14"
       x1="161.93997"
       y1="55.840176"
       x2="150.26834"
       y2="73.326942"
       id="line8644" /><path
       style="fill:none;stroke:#e19c14;stroke-width:1.5725168;stroke-miterlimit:10"
       class="st15"
       d="M 53.615505,8.5402745 C 47.773393,4.0298764 39.334786,5.8584162 34.661095,12.684965 c -3.764917,5.363716 -3.115793,12.799778 1.557897,16.334955 3.764917,2.925663 9.217556,1.706637 12.203524,-2.681859 2.46667,-3.413274 1.947371,-8.167477 -1.038598,-10.483628 -2.336845,-1.828539 -5.842112,-1.097123 -7.789483,1.706638 -1.557897,2.194247 -1.298247,5.241813 0.649124,6.704645 1.557896,1.219027 3.764917,0.731416 4.933339,-1.097124 1.038598,-1.462831 0.778948,-3.291371 -0.389474,-4.266592"
       id="path8646" /><path
       style="fill:none;stroke:#e19c14;stroke-width:1.5725168;stroke-miterlimit:10"
       class="st15"
       d="M 53.226031,24.87523 C 59.976917,21.827663 61.794463,13.782088 57.120773,6.95554 53.48568,1.4699208 46.215496,-0.96813221 40.762857,1.4699208 36.478642,3.4203632 35.310219,8.5402745 38.296188,12.92877 c 2.336845,3.535177 7.14036,5.119911 10.515802,3.535177 2.72632,-1.219027 3.505268,-4.510398 1.557897,-7.3141593 C 48.81199,6.95554 45.826022,5.8584162 43.619001,6.95554 c -1.817546,0.8533186 -2.20702,2.9256636 -1.038597,4.754203 0.908773,1.462832 2.856144,2.072345 4.284216,1.462832"
       id="path8648" /><path
       style="fill:none;stroke:#e19c14;stroke-width:1.5725168;stroke-miterlimit:10"
       class="st15"
       d="M 47.254094,31.33607 C 54.004979,28.288504 55.822526,20.242929 51.148835,13.41638 47.513743,7.9307612 40.113734,5.4927082 34.661095,7.9307612 30.37688,9.8812036 29.208457,15.001115 32.194426,19.38961 c 2.336845,3.535177 7.14036,5.119912 10.515802,3.535177 2.72632,-1.219026 3.505268,-4.510398 1.557897,-7.314159 -1.557897,-2.194248 -4.543865,-3.291371 -6.750886,-2.194248 -1.817546,0.853319 -2.20702,2.925664 -1.038597,4.754204 0.908773,1.462832 2.856144,2.072345 4.284215,1.462832"
       id="path8650" /><path
       style="fill:none;stroke:#e19c14;stroke-width:1.5725168;stroke-miterlimit:10"
       class="st15"
       d="m 52.966382,28.288504 c 2.20702,-6.704646 -2.72632,-13.409292 -11.294751,-14.994026 -6.750886,-1.219027 -13.761421,2.194248 -15.578967,7.557964 -1.428072,4.266593 1.817546,8.655088 7.140359,9.630309 4.284216,0.731416 8.828082,-1.340929 9.996504,-4.876106 0.908773,-2.803761 -1.168422,-5.485619 -4.67369,-6.095132 -2.726319,-0.487611 -5.582463,0.853318 -6.361411,3.047566 -0.649124,1.82854 0.778948,3.535177 2.985968,3.900885 1.817546,0.365708 3.635093,-0.609513 4.024567,-1.950442"
       id="path8652" /><path
       style="fill:none;stroke:#e19c14;stroke-width:1.5725168;stroke-miterlimit:10"
       class="st15"
       d="m 52.447083,25.606645 c 2.726319,-5.119911 0,-11.215043 -6.101762,-13.653096 -4.93334,-1.950443 -10.645628,-0.243806 -12.852648,3.900884 -1.817546,3.291372 0,7.192257 3.894742,8.776991 3.115793,1.219027 6.88071,0.121903 8.308782,-2.438053 1.168423,-2.072345 0,-4.6323 -2.46667,-5.607522 -1.947371,-0.853318 -4.41404,-0.121902 -5.322813,1.584735 -0.778949,1.340929 0,2.925663 1.557896,3.535177 1.298247,0.48761 2.856144,0 3.375443,-0.975222"
       id="path8654" /><path
       style="fill:none;stroke:#e19c14;stroke-width:1.5725168;stroke-miterlimit:10"
       class="st15"
       d="M 80.359398,24.997132 C 83.215542,18.780097 80.619048,11.587841 74.517286,8.7840798 69.583946,6.5898321 63.871658,8.6621771 61.534813,13.660186 c -1.817546,3.900885 -0.129824,8.533185 3.764917,10.361725 3.115794,1.462832 6.880711,0 8.308783,-3.047566 1.168422,-2.559956 0.129825,-5.485619 -2.46667,-6.704646 -1.947371,-0.975221 -4.414041,0 -5.322814,1.950442 -0.778948,1.584735 0,3.535177 1.557897,4.266593 1.298247,0.609513 2.856144,0 3.375443,-1.219026"
       id="path8656" /><path
       style="fill:none;stroke:#e19c14;stroke-width:1.5725168;stroke-miterlimit:10"
       class="st15"
       d="m 39.594435,11.953549 c 1.947371,-5.4856196 8.438607,-7.9236726 14.670194,-5.6075222 4.933339,1.9504424 7.659659,6.9484512 6.101762,11.3369462 -1.168423,3.535177 -5.452639,5.119911 -9.34738,3.535177 -3.115794,-1.219026 -4.93334,-4.510398 -3.894742,-7.314159 0.778948,-2.194248 3.505268,-3.291371 5.971937,-2.31615 2.077196,0.731416 3.115794,2.925663 2.46667,4.6323 -0.519299,1.462832 -2.20702,2.072345 -3.894742,1.462832 -1.298247,-0.48761 -1.947371,-1.82854 -1.557896,-2.925663"
       id="path8658" /><path
       style="fill:none;stroke:#e19c14;stroke-width:1.5725168;stroke-miterlimit:10"
       class="st15"
       d="m 54.654103,23.04669 c -1.817546,-5.485619 1.947371,-11.093141 8.308782,-12.555973 5.192989,-1.2190266 10.515803,1.462832 12.0737,5.851327 1.168422,3.535177 -1.168423,7.070354 -5.322814,8.045575 -3.375443,0.731416 -6.750886,-0.975221 -7.659659,-3.778982 -0.778948,-2.194248 0.778949,-4.510398 3.375443,-5.119911 2.077196,-0.487611 4.284216,0.609513 4.93334,2.438052 0.519299,1.462832 -0.519299,2.925664 -2.207021,3.291372 -1.298247,0.365708 -2.726319,-0.365708 -3.115793,-1.584734"
       id="path8660" /><path
       style="fill:none;stroke:#e19c14;stroke-width:1.5725168;stroke-miterlimit:10"
       class="st15"
       d="M 80.489223,14.635407 C 79.450625,7.6869559 71.790967,3.6641685 63.482184,5.7365135 56.861123,7.4431506 52.057609,13.294478 52.966382,18.902 c 0.649123,4.510398 5.582463,7.070353 10.905276,5.729424 4.284216,-1.097124 7.270185,-4.876106 6.750886,-8.411283 -0.389474,-2.925663 -3.505267,-4.510398 -7.010535,-3.657079 -2.726319,0.731416 -4.67369,3.047566 -4.284216,5.363716 0.25965,1.82854 2.336845,2.925664 4.414041,2.316151 1.687721,-0.487611 2.985968,-1.950443 2.726319,-3.413274"
       id="path8662" /><path
       style="fill:none;stroke:#e19c14;stroke-width:1.5725168;stroke-miterlimit:10"
       class="st15"
       d="M 68.545349,26.459964 C 75.815533,28.410406 82.826068,23.5343 84.25414,15.610628 85.422563,9.2716904 81.657646,2.8108499 75.945358,1.2261155 c -4.67369,-1.21902652 -9.087731,1.8285397 -10.126329,6.948451 -0.778948,4.1446905 1.687722,8.1674775 5.322814,9.2646015 2.985969,0.853318 5.842113,-1.219027 6.491236,-4.388495 0.519299,-2.559956 -1.038598,-5.2418144 -3.375443,-5.8513277 -1.94737,-0.4876106 -3.764917,0.7314159 -4.154391,2.8037607 -0.259649,1.706637 0.649124,3.413274 2.207021,3.778982"
       id="path8664" /><path
       style="fill:none;stroke:#e19c14;stroke-width:1.5725168;stroke-miterlimit:10"
       class="st15"
       d="M 59.457618,27.557088 C 66.727802,29.50753 73.738338,24.631424 75.166409,16.707752 76.334832,10.368814 72.569915,3.9079738 66.857627,2.3232393 62.183937,1.1042128 57.769896,4.1517791 56.731299,9.2716904 55.95235,13.41638 58.41902,17.439168 62.054112,18.536292 c 2.985969,0.853318 5.842113,-1.219027 6.491237,-4.388496 0.519298,-2.559955 -1.038598,-5.2418136 -3.375443,-5.8513268 -1.947371,-0.4876106 -3.764917,0.7314159 -4.154391,2.8037608 -0.25965,1.706637 0.649123,3.413274 2.20702,3.778982"
       id="path8666" /><path
       style="fill:none;stroke:#e19c14;stroke-width:1.5725168;stroke-miterlimit:10"
       class="st15"
       d="m 54.783928,28.166601 c 7.270184,1.950442 14.280719,-2.925664 15.708791,-10.849336 1.168423,-6.338938 -2.596494,-12.799778 -8.308782,-14.3845124 -4.67369,-1.2190265 -9.087731,1.8285397 -10.126328,6.948451 -0.778949,4.1446904 1.687721,8.1674774 5.322813,9.2646014 2.985969,0.853319 5.842113,-1.219027 6.491236,-4.388495 0.519299,-2.559956 -1.038597,-5.2418143 -3.375442,-5.8513276 -1.947371,-0.4876106 -3.764917,0.7314159 -4.154392,2.8037606 -0.259649,1.706637 0.649124,3.413275 2.207021,3.778983"
       id="path8668" /><path
       style="fill:none;stroke:#e19c14;stroke-width:1.5725168;stroke-miterlimit:10"
       class="st15"
       d="m 67.636575,8.4183718 c 5.322814,-2.8037609 11.943875,-0.6095132 14.800019,5.1199112 2.336845,4.510398 0.649124,9.996017 -3.505267,12.312168 -3.375443,1.828539 -7.659659,0.365708 -9.477205,-3.291372 -1.428072,-2.925663 -0.389475,-6.46084 2.336845,-7.801769 2.20702,-1.219027 4.933339,-0.243806 6.101762,2.072345 0.908773,1.828539 0.259649,4.14469 -1.428072,4.998008 -1.428072,0.731416 -3.115794,0.121903 -3.894742,-1.340929 -0.649124,-1.219026 -0.129825,-2.681858 0.908773,-3.169469"
       id="path8670" /><path
       style="fill:none;stroke:#e19c14;stroke-width:1.5725168;stroke-miterlimit:10"
       class="st15"
       d="m 104.5068,19.023902 c -1.0386,-6.948451 -8.698259,-10.9712381 -17.007042,-8.898893 -6.621061,1.706637 -11.294751,7.557964 -10.515802,13.165486 0.649123,4.510398 5.582463,7.070354 10.905276,5.729425 4.284216,-1.097124 7.270185,-4.876106 6.750886,-8.411283 -0.389474,-2.925664 -3.635092,-4.510398 -7.010535,-3.65708 -2.726319,0.731416 -4.67369,3.047567 -4.284216,5.363717 0.25965,1.82854 2.336845,2.925663 4.414041,2.31615 1.687721,-0.48761 2.985968,-1.950442 2.726319,-3.413274"
       id="path8672" /><path
       style="fill:none;stroke:#e19c14;stroke-width:1.5725168;stroke-miterlimit:10"
       class="st15"
       d="m 92.692747,30.848459 c 7.270185,1.950443 14.280723,-2.925663 15.708793,-10.849335 1.16842,-6.338938 -2.5965,-12.7997787 -8.30878,-14.3845131 -4.673693,-1.2190265 -9.087734,1.8285397 -10.126332,6.9484511 -0.778948,4.14469 1.687722,8.167477 5.322814,9.264601 2.985968,0.853319 5.842108,-1.219026 6.491238,-4.388495 0.5193,-2.559956 -1.0386,-5.241814 -3.375445,-5.851327 -1.947371,-0.487611 -3.764917,0.731416 -4.154391,2.803761 -0.259649,1.706637 0.649124,3.413274 2.20702,3.778982"
       id="path8674" /><path
       style="fill:none;stroke:#e19c14;stroke-width:1.5725168;stroke-miterlimit:10"
       class="st15"
       d="M 83.605017,31.945583 C 90.875201,33.896026 97.885736,29.01992 99.313808,21.096247 100.48223,14.75731 96.717314,8.2964692 91.005026,6.7117347 86.331336,5.4927082 81.917295,8.5402745 80.878697,13.660186 c -0.778948,4.14469 1.687722,8.167477 5.322814,9.264601 2.985969,0.853319 5.842113,-1.219026 6.491236,-4.388495 0.519299,-2.559956 -1.038597,-5.241814 -3.375443,-5.97323 -1.94737,-0.487611 -3.764917,0.731416 -4.154391,2.803761 -0.259649,1.706637 0.649124,3.413274 2.207021,3.778982"
       id="path8676" /><path
       style="fill:none;stroke:#e19c14;stroke-width:1.5725168;stroke-miterlimit:10"
       class="st15"
       d="M 78.801502,32.555096 C 86.071686,34.505539 93.082221,29.629433 94.510293,21.705761 95.678716,15.366823 91.913799,8.9059824 86.201511,7.321248 81.527821,6.1022215 77.11378,9.1497877 76.075183,14.269699 c -0.778949,4.14469 1.687721,8.167478 5.322813,9.264601 2.985969,0.853319 5.842113,-1.219026 6.491236,-4.388495 0.519299,-2.559956 -1.038597,-5.241814 -3.375442,-5.851327 -1.947371,-0.487611 -3.764917,0.731416 -4.154392,2.803761 -0.259649,1.706637 0.649124,3.413274 2.207021,3.778982"
       id="path8678" /><path
       style="fill:none;stroke:#e19c14;stroke-width:1.5725168;stroke-miterlimit:10"
       class="st15"
       d="m 91.65415,12.806867 c 5.322813,-2.803761 11.94387,-0.609513 14.80002,5.119911 2.33684,4.510399 0.64912,9.996018 -3.50527,12.312168 -3.375442,1.82854 -7.659658,0.365708 -9.477204,-3.291371 -1.428072,-2.925664 -0.389475,-6.460841 2.336845,-7.80177 2.20702,-1.219027 4.933339,-0.243805 6.101759,2.072345 0.90878,1.82854 0.25965,4.14469 -1.42807,4.998009 -1.428071,0.731416 -3.115793,0.121902 -3.894741,-1.340929 -0.649124,-1.219027 -0.129825,-2.681859 0.908773,-3.169469"
       id="path8680" /></g></svg>