<?xml version="1.0" encoding="UTF-8" standalone="no"?>
<svg
   xmlns:dc="http://purl.org/dc/elements/1.1/"
   xmlns:cc="http://creativecommons.org/ns#"
   xmlns:rdf="http://www.w3.org/1999/02/22-rdf-syntax-ns#"
   xmlns:svg="http://www.w3.org/2000/svg"
   xmlns="http://www.w3.org/2000/svg"
   xmlns:xlink="http://www.w3.org/1999/xlink"
   height="239"
   width="239"
   xml:space="preserve"
   viewBox="0 0 239 239"
   y="0px"
   x="0px"
   id="Layer_1"
   version="1.1"><metadata
     id="metadata11264"><rdf:RDF><cc:Work
         rdf:about=""><dc:format>image/svg+xml</dc:format><dc:type
           rdf:resource="http://purl.org/dc/dcmitype/StillImage" /><dc:title></dc:title></cc:Work></rdf:RDF></metadata><defs
     id="defs11262"><defs
       id="defs11102"><rect
         id="SVGID_1_"
         width="200"
         height="200"
         x="0"
         y="0" /></defs><clipPath
       id="SVGID_2_"><use
         xlink:href="#SVGID_1_"
         style="overflow:visible"
         id="use11104"
         x="0"
         y="0"
         width="100%"
         height="100%" /></clipPath><clipPath
       id="SVGID_2_-7"><use
         id="use8515"
         style="overflow:visible"
         xlink:href="#SVGID_1_"
         x="0"
         y="0"
         width="100%"
         height="100%" /></clipPath><clipPath
       id="clipPath4580"><use
         id="use4578"
         style="overflow:visible"
         xlink:href="#SVGID_1_"
         x="0"
         y="0"
         width="100%"
         height="100%" /></clipPath><clipPath
       id="clipPath4584"><use
         id="use4582"
         style="overflow:visible"
         xlink:href="#SVGID_1_"
         x="0"
         y="0"
         width="100%"
         height="100%" /></clipPath><clipPath
       id="clipPath4588"><use
         id="use4586"
         style="overflow:visible"
         xlink:href="#SVGID_1_"
         x="0"
         y="0"
         width="100%"
         height="100%" /></clipPath><clipPath
       id="clipPath4592"><use
         id="use4590"
         style="overflow:visible"
         xlink:href="#SVGID_1_"
         x="0"
         y="0"
         width="100%"
         height="100%" /></clipPath><clipPath
       id="clipPath4596"><use
         id="use4594"
         style="overflow:visible"
         xlink:href="#SVGID_1_"
         x="0"
         y="0"
         width="100%"
         height="100%" /></clipPath><clipPath
       id="clipPath4600"><use
         id="use4598"
         style="overflow:visible"
         xlink:href="#SVGID_1_"
         x="0"
         y="0"
         width="100%"
         height="100%" /></clipPath><clipPath
       id="clipPath4604"><use
         id="use4602"
         style="overflow:visible"
         xlink:href="#SVGID_1_"
         x="0"
         y="0"
         width="100%"
         height="100%" /></clipPath><clipPath
       id="clipPath4608"><use
         id="use4606"
         style="overflow:visible"
         xlink:href="#SVGID_1_"
         x="0"
         y="0"
         width="100%"
         height="100%" /></clipPath><clipPath
       id="clipPath4612"><use
         id="use4610"
         style="overflow:visible"
         xlink:href="#SVGID_1_"
         x="0"
         y="0"
         width="100%"
         height="100%" /></clipPath><clipPath
       id="clipPath4616"><use
         id="use4614"
         style="overflow:visible"
         xlink:href="#SVGID_1_"
         x="0"
         y="0"
         width="100%"
         height="100%" /></clipPath><clipPath
       id="clipPath4620"><use
         id="use4618"
         style="overflow:visible"
         xlink:href="#SVGID_1_"
         x="0"
         y="0"
         width="100%"
         height="100%" /></clipPath><clipPath
       id="clipPath4624"><use
         id="use4622"
         style="overflow:visible"
         xlink:href="#SVGID_1_"
         x="0"
         y="0"
         width="100%"
         height="100%" /></clipPath><clipPath
       id="clipPath4628"><use
         id="use4626"
         style="overflow:visible"
         xlink:href="#SVGID_1_"
         x="0"
         y="0"
         width="100%"
         height="100%" /></clipPath><clipPath
       id="clipPath4632"><use
         id="use4630"
         style="overflow:visible"
         xlink:href="#SVGID_1_"
         x="0"
         y="0"
         width="100%"
         height="100%" /></clipPath><clipPath
       id="clipPath4636"><use
         id="use4634"
         style="overflow:visible"
         xlink:href="#SVGID_1_"
         x="0"
         y="0"
         width="100%"
         height="100%" /></clipPath><clipPath
       id="clipPath4640"><use
         id="use4638"
         style="overflow:visible"
         xlink:href="#SVGID_1_"
         x="0"
         y="0"
         width="100%"
         height="100%" /></clipPath><clipPath
       id="clipPath4644"><use
         id="use4642"
         style="overflow:visible"
         xlink:href="#SVGID_1_"
         x="0"
         y="0"
         width="100%"
         height="100%" /></clipPath><clipPath
       id="clipPath4648"><use
         id="use4646"
         style="overflow:visible"
         xlink:href="#SVGID_1_"
         x="0"
         y="0"
         width="100%"
         height="100%" /></clipPath><clipPath
       id="clipPath4652"><use
         id="use4650"
         style="overflow:visible"
         xlink:href="#SVGID_1_"
         x="0"
         y="0"
         width="100%"
         height="100%" /></clipPath><clipPath
       id="clipPath4656"><use
         id="use4654"
         style="overflow:visible"
         xlink:href="#SVGID_1_"
         x="0"
         y="0"
         width="100%"
         height="100%" /></clipPath><clipPath
       id="clipPath4660"><use
         id="use4658"
         style="overflow:visible"
         xlink:href="#SVGID_1_"
         x="0"
         y="0"
         width="100%"
         height="100%" /></clipPath><clipPath
       id="clipPath4664"><use
         id="use4662"
         style="overflow:visible"
         xlink:href="#SVGID_1_"
         x="0"
         y="0"
         width="100%"
         height="100%" /></clipPath><clipPath
       id="clipPath4668"><use
         id="use4666"
         style="overflow:visible"
         xlink:href="#SVGID_1_"
         x="0"
         y="0"
         width="100%"
         height="100%" /></clipPath><clipPath
       id="clipPath4672"><use
         id="use4670"
         style="overflow:visible"
         xlink:href="#SVGID_1_"
         x="0"
         y="0"
         width="100%"
         height="100%" /></clipPath><clipPath
       id="clipPath4676"><use
         id="use4674"
         style="overflow:visible"
         xlink:href="#SVGID_1_"
         x="0"
         y="0"
         width="100%"
         height="100%" /></clipPath><clipPath
       id="clipPath4680"><use
         id="use4678"
         style="overflow:visible"
         xlink:href="#SVGID_1_"
         x="0"
         y="0"
         width="100%"
         height="100%" /></clipPath><clipPath
       id="clipPath4684"><use
         id="use4682"
         style="overflow:visible"
         xlink:href="#SVGID_1_"
         x="0"
         y="0"
         width="100%"
         height="100%" /></clipPath><clipPath
       id="clipPath4688"><use
         id="use4686"
         style="overflow:visible"
         xlink:href="#SVGID_1_"
         x="0"
         y="0"
         width="100%"
         height="100%" /></clipPath><clipPath
       id="clipPath4692"><use
         id="use4690"
         style="overflow:visible"
         xlink:href="#SVGID_1_"
         x="0"
         y="0"
         width="100%"
         height="100%" /></clipPath><clipPath
       id="clipPath4696"><use
         id="use4694"
         style="overflow:visible"
         xlink:href="#SVGID_1_"
         x="0"
         y="0"
         width="100%"
         height="100%" /></clipPath><clipPath
       id="clipPath4700"><use
         id="use4698"
         style="overflow:visible"
         xlink:href="#SVGID_1_"
         x="0"
         y="0"
         width="100%"
         height="100%" /></clipPath><clipPath
       id="clipPath4704"><use
         id="use4702"
         style="overflow:visible"
         xlink:href="#SVGID_1_"
         x="0"
         y="0"
         width="100%"
         height="100%" /></clipPath><clipPath
       id="clipPath4708"><use
         id="use4706"
         style="overflow:visible"
         xlink:href="#SVGID_1_"
         x="0"
         y="0"
         width="100%"
         height="100%" /></clipPath><clipPath
       id="clipPath4712"><use
         id="use4710"
         style="overflow:visible"
         xlink:href="#SVGID_1_"
         x="0"
         y="0"
         width="100%"
         height="100%" /></clipPath><clipPath
       id="clipPath4716"><use
         id="use4714"
         style="overflow:visible"
         xlink:href="#SVGID_1_"
         x="0"
         y="0"
         width="100%"
         height="100%" /></clipPath><clipPath
       id="clipPath4720"><use
         id="use4718"
         style="overflow:visible"
         xlink:href="#SVGID_1_"
         x="0"
         y="0"
         width="100%"
         height="100%" /></clipPath><clipPath
       id="clipPath4724"><use
         id="use4722"
         style="overflow:visible"
         xlink:href="#SVGID_1_"
         x="0"
         y="0"
         width="100%"
         height="100%" /></clipPath><clipPath
       id="clipPath4728"><use
         id="use4726"
         style="overflow:visible"
         xlink:href="#SVGID_1_"
         x="0"
         y="0"
         width="100%"
         height="100%" /></clipPath><clipPath
       id="clipPath4732"><use
         id="use4730"
         style="overflow:visible"
         xlink:href="#SVGID_1_"
         x="0"
         y="0"
         width="100%"
         height="100%" /></clipPath><clipPath
       id="clipPath4736"><use
         id="use4734"
         style="overflow:visible"
         xlink:href="#SVGID_1_"
         x="0"
         y="0"
         width="100%"
         height="100%" /></clipPath><clipPath
       id="clipPath4740"><use
         id="use4738"
         style="overflow:visible"
         xlink:href="#SVGID_1_"
         x="0"
         y="0"
         width="100%"
         height="100%" /></clipPath><clipPath
       id="clipPath4744"><use
         id="use4742"
         style="overflow:visible"
         xlink:href="#SVGID_1_"
         x="0"
         y="0"
         width="100%"
         height="100%" /></clipPath><clipPath
       id="clipPath4748"><use
         id="use4746"
         style="overflow:visible"
         xlink:href="#SVGID_1_"
         x="0"
         y="0"
         width="100%"
         height="100%" /></clipPath><clipPath
       id="clipPath4752"><use
         id="use4750"
         style="overflow:visible"
         xlink:href="#SVGID_1_"
         x="0"
         y="0"
         width="100%"
         height="100%" /></clipPath><clipPath
       id="clipPath4756"><use
         id="use4754"
         style="overflow:visible"
         xlink:href="#SVGID_1_"
         x="0"
         y="0"
         width="100%"
         height="100%" /></clipPath><clipPath
       id="clipPath4760"><use
         id="use4758"
         style="overflow:visible"
         xlink:href="#SVGID_1_"
         x="0"
         y="0"
         width="100%"
         height="100%" /></clipPath><clipPath
       id="clipPath4764"><use
         id="use4762"
         style="overflow:visible"
         xlink:href="#SVGID_1_"
         x="0"
         y="0"
         width="100%"
         height="100%" /></clipPath><clipPath
       id="clipPath4768"><use
         id="use4766"
         style="overflow:visible"
         xlink:href="#SVGID_1_"
         x="0"
         y="0"
         width="100%"
         height="100%" /></clipPath><clipPath
       id="clipPath4772"><use
         id="use4770"
         style="overflow:visible"
         xlink:href="#SVGID_1_"
         x="0"
         y="0"
         width="100%"
         height="100%" /></clipPath><clipPath
       id="clipPath4776"><use
         id="use4774"
         style="overflow:visible"
         xlink:href="#SVGID_1_"
         x="0"
         y="0"
         width="100%"
         height="100%" /></clipPath><clipPath
       id="clipPath4780"><use
         id="use4778"
         style="overflow:visible"
         xlink:href="#SVGID_1_"
         x="0"
         y="0"
         width="100%"
         height="100%" /></clipPath><clipPath
       id="clipPath4784"><use
         id="use4782"
         style="overflow:visible"
         xlink:href="#SVGID_1_"
         x="0"
         y="0"
         width="100%"
         height="100%" /></clipPath><clipPath
       id="clipPath4788"><use
         id="use4786"
         style="overflow:visible"
         xlink:href="#SVGID_1_"
         x="0"
         y="0"
         width="100%"
         height="100%" /></clipPath><clipPath
       id="clipPath4792"><use
         id="use4790"
         style="overflow:visible"
         xlink:href="#SVGID_1_"
         x="0"
         y="0"
         width="100%"
         height="100%" /></clipPath><clipPath
       id="clipPath4796"><use
         id="use4794"
         style="overflow:visible"
         xlink:href="#SVGID_1_"
         x="0"
         y="0"
         width="100%"
         height="100%" /></clipPath><clipPath
       id="clipPath4800"><use
         id="use4798"
         style="overflow:visible"
         xlink:href="#SVGID_1_"
         x="0"
         y="0"
         width="100%"
         height="100%" /></clipPath><clipPath
       id="clipPath4804"><use
         id="use4802"
         style="overflow:visible"
         xlink:href="#SVGID_1_"
         x="0"
         y="0"
         width="100%"
         height="100%" /></clipPath><clipPath
       id="clipPath4808"><use
         id="use4806"
         style="overflow:visible"
         xlink:href="#SVGID_1_"
         x="0"
         y="0"
         width="100%"
         height="100%" /></clipPath><clipPath
       id="clipPath4812"><use
         id="use4810"
         style="overflow:visible"
         xlink:href="#SVGID_1_"
         x="0"
         y="0"
         width="100%"
         height="100%" /></clipPath></defs><style
     id="style11095"
     type="text/css">
	.st0{fill:#FFFFFF;}
	.st1{fill:none;stroke:#000000;stroke-width:2;stroke-miterlimit:10;}
	.st2{clip-path:url(#SVGID_2_);fill:none;stroke:#2B2B2B;stroke-width:0.25;stroke-miterlimit:10;}
	.st3{clip-path:url(#SVGID_2_);fill:none;stroke:#2B2B2B;stroke-miterlimit:10;}
	.st4{clip-path:url(#SVGID_2_);fill:none;stroke:#593D21;stroke-width:0.25;stroke-miterlimit:10;}
	.st5{clip-path:url(#SVGID_2_);fill:#FFFFFF;}
	.st6{clip-path:url(#SVGID_2_);fill:none;stroke:#000000;stroke-miterlimit:10;}
	.st7{clip-path:url(#SVGID_2_);}
	.st8{fill:none;}
	.st9{fill:#FF7900;}
	.st10{fill:none;stroke:#FF7900;stroke-miterlimit:10;}
	.st11{fill:none;stroke:#E19C14;stroke-miterlimit:10;}
	.st12{fill:none;stroke:#000000;stroke-miterlimit:10;}
	.st13{fill:#E19C14;}
	.st14{fill:none;stroke:#444444;stroke-miterlimit:10;}
	.st15{fill:none;stroke:#000000;stroke-width:0.25;stroke-miterlimit:10;}
	.st16{fill:none;stroke:#E19C14;stroke-width:3;stroke-miterlimit:10;}
	.st17{fill:none;stroke:#E19C14;stroke-width:1.25;stroke-miterlimit:10;}
</style><g
     transform="matrix(1,0,0,1.2044135,3.3898305,41.112237)"
     class="st7"
     clip-path="url(#SVGID_2_)"
     id="g11143"><polygon
       class="st8"
       points="173.1,110.7 166.9,62.3 72.6,99 "
       id="polygon11141"
       style="fill:none" /></g><rect
     style="opacity:1;fill:#ffffff;fill-opacity:1;stroke:#000000;stroke-width:0.77915567;stroke-miterlimit:4;stroke-dasharray:none"
     id="rect11011"
     width="17.699648"
     height="72.4403"
     x="152.95474"
     y="74.450851"
     transform="matrix(0.96242688,0.27154096,-0.47637145,0.87924413,0,0)" /><path
     id="path8522"
     clip-path="url(#SVGID_2_)"
     d="m 53.1,152.4 c -2.9,-0.1 -5.3,1.6 -5.3,3.8"
     class="st2"
     style="fill:none;stroke:#593d21;stroke-width:0.25;stroke-miterlimit:10"
     transform="matrix(1.2982472,0,0,1.468212,-13.906374,-43.704246)" /><path
     id="path8524"
     clip-path="url(#SVGID_2_)"
     d="M 69.8,113.7 C 64.9,109.4 59.4,107 53.7,107 c -5.8,0 -11.3,2.5 -16.3,6.9 4.8,2.3 10.3,3.6 16,3.6 6,0 11.5,-1.4 16.4,-3.8"
     class="st3"
     style="fill:#ffffff;stroke:#2b2b2b;stroke-miterlimit:10"
     transform="matrix(1.2982472,0,0,1.468212,-13.906374,-43.704246)" /><path
     id="path8526"
     clip-path="url(#SVGID_2_)"
     d="M 69.8,113.7 C 64.9,109.4 59.4,107 53.7,107 c -5.8,0 -11.3,2.5 -16.3,6.9 4.8,2.3 10.3,3.6 16,3.6 6,0 11.5,-1.4 16.4,-3.8 z"
     class="st4"
     style="fill:none;stroke:#000000;stroke-width:0.25;stroke-miterlimit:10"
     transform="matrix(1.2982472,0,0,1.468212,-13.906374,-43.704246)" /><path
     id="path8528"
     clip-path="url(#SVGID_2_)"
     d="m 42.5,119.5 c 0,0 10.5,53.2 11,68 v 0 c 0.5,-14.8 11,-68 11,-68 0,0 1.9,-3.1 5.8,-5.4 -0.1,-0.1 -0.3,-0.3 -0.4,-0.4 -4.9,2.4 -10.5,3.8 -16.3,3.8 -5.7,0 -11.2,-1.3 -16,-3.6 -0.2,0.1 -0.3,0.3 -0.5,0.4 3.6,2.3 5.4,5.2 5.4,5.2"
     class="st3"
     style="fill:#ffffff;stroke:#2b2b2b;stroke-miterlimit:10"
     transform="matrix(1.2982472,0,0,1.468212,-13.906374,-43.704246)" /><path
     id="path8530"
     clip-path="url(#SVGID_2_)"
     d="m 42.5,119.5 c 0,0 10.5,53.2 11,68 v 0 c 0.5,-14.8 11,-68 11,-68 0,0 1.9,-3.1 5.8,-5.4 -0.1,-0.1 -0.3,-0.3 -0.4,-0.4 -4.9,2.4 -10.5,3.8 -16.3,3.8 -5.7,0 -11.2,-1.3 -16,-3.6 -0.2,0.1 -0.3,0.3 -0.5,0.4 3.6,2.3 5.4,5.2 5.4,5.2 z"
     class="st4"
     style="fill:none;stroke:#000000;stroke-width:0.25;stroke-miterlimit:10"
     transform="matrix(1.2982472,0,0,1.468212,-13.906374,-43.704246)" /><path
     id="path8532"
     clip-path="url(#SVGID_2_)"
     d="m 64.5,119.5 c 0,0 -10.5,53.2 -11,68 H 94 c 0,-32.7 -9.7,-60.8 -23.7,-73.4 -3.9,2.3 -5.8,5.4 -5.8,5.4"
     class="st3"
     style="fill:#ffffff;stroke:#2b2b2b;stroke-miterlimit:10"
     transform="matrix(1.2982472,0,0,1.468212,-13.906374,-43.704246)" /><path
     id="path8534"
     clip-path="url(#SVGID_2_)"
     d="m 64.5,119.5 c 0,0 -10.5,53.2 -11,68 H 94 c 0,-32.7 -9.7,-60.8 -23.7,-73.4 -3.9,2.3 -5.8,5.4 -5.8,5.4 z"
     class="st4"
     style="fill:none;stroke:#000000;stroke-width:0.25;stroke-miterlimit:10"
     transform="matrix(1.2982472,0,0,1.468212,-13.906374,-43.704246)" /><path
     id="path8536"
     clip-path="url(#SVGID_2_)"
     d="m 13.5,187.5 h 40 c -0.5,-14.8 -11,-68 -11,-68 0,0 -1.8,-2.9 -5.5,-5.2 C 23.1,127 13.5,155 13.5,187.5"
     class="st3"
     style="fill:#ffffff;stroke:#2b2b2b;stroke-miterlimit:10"
     transform="matrix(1.2982472,0,0,1.468212,-13.906374,-43.704246)" /><path
     id="path8538"
     clip-path="url(#SVGID_2_)"
     d="m 13.5,187.5 h 40 c -0.5,-14.8 -11,-68 -11,-68 0,0 -1.8,-2.9 -5.5,-5.2 C 23.1,127 13.5,155 13.5,187.5 Z"
     class="st4"
     style="fill:none;stroke:#000000;stroke-width:0.25;stroke-miterlimit:10"
     transform="matrix(1.2982472,0,0,1.468212,-13.906374,-43.704246)" /><path
     id="path8540"
     clip-path="url(#SVGID_2_)"
     d="m 88.5,81 c 0,19.3 -15.7,35 -35,35 -19.3,0 -35,-15.7 -35,-35 0,-19.3 15.7,-35 35,-35 19.3,0 35,15.7 35,35"
     class="st3"
     style="fill:#ffffff;stroke:#2b2b2b;stroke-miterlimit:10"
     transform="matrix(1.2982472,0,0,1.468212,-13.906374,-43.704246)" /><path
     id="path8542"
     clip-path="url(#SVGID_2_)"
     d="m 49.3,80.8 c 1.1,11.3 9.7,14 10,0 z"
     class="st5"
     style="fill:none;stroke:#e19c14;stroke-miterlimit:10"
     transform="matrix(1.2982472,0,0,1.468212,-13.906374,-43.704246)" /><circle
     id="circle8544"
     clip-path="url(#SVGID_2_)"
     r="35"
     cy="82.5"
     cx="53.5"
     class="st6"
     style="fill:none;stroke:#000000;stroke-width:2;stroke-miterlimit:10"
     transform="matrix(1.2982472,0,0,1.468212,-13.906374,-43.704246)" /><path
     id="path8546"
     clip-path="url(#SVGID_2_)"
     d="M 46.7,70.4 C 42.9,66.8 36.1,67.9 31.5,72.8"
     class="st4"
     style="fill:none;stroke:#000000;stroke-width:0.25;stroke-miterlimit:10"
     transform="matrix(1.2982472,0,0,1.468212,-13.906374,-43.704246)" /><path
     id="path8548"
     clip-path="url(#SVGID_2_)"
     d="M 76.1,72.6 C 73.5,68.1 66.7,67.1 60.8,70.4"
     class="st4"
     style="fill:none;stroke:#000000;stroke-width:0.25;stroke-miterlimit:10"
     transform="matrix(1.2982472,0,0,1.468212,-13.906374,-43.704246)" /><ellipse
     id="ellipse8550"
     clip-path="url(#SVGID_2_)"
     ry="4"
     rx="6"
     cy="74.5"
     cx="40.099998"
     class="st4"
     style="fill:none;stroke:#000000;stroke-width:0.25;stroke-miterlimit:10"
     transform="matrix(1.2982472,0,0,1.468212,-13.906374,-43.704246)" /><path
     id="path8552"
     clip-path="url(#SVGID_2_)"
     d="m 43.6,74.5 c 0,1.9 -1.6,3.5 -3.5,3.5 -1.9,0 -3.5,-1.6 -3.5,-3.5 0,-1.9 1.6,-3.5 3.5,-3.5 1.9,0 3.5,1.6 3.5,3.5"
     class="st7"
     style="fill:#e19c14"
     transform="matrix(1.2982472,0,0,1.468212,-13.906374,-43.704246)" /><ellipse
     id="ellipse8554"
     clip-path="url(#SVGID_2_)"
     ry="4"
     rx="6"
     cy="74.5"
     cx="68.5"
     class="st4"
     style="fill:none;stroke:#000000;stroke-width:0.25;stroke-miterlimit:10"
     transform="matrix(1.2982472,0,0,1.468212,-13.906374,-43.704246)" /><path
     id="path8556"
     clip-path="url(#SVGID_2_)"
     d="M 72,74.5 C 72,76.4 70.4,78 68.5,78 66.6,78 65,76.4 65,74.5 65,72.6 66.6,71 68.5,71 c 1.9,0 3.5,1.6 3.5,3.5"
     class="st7"
     style="fill:#e19c14"
     transform="matrix(1.2982472,0,0,1.468212,-13.906374,-43.704246)" /><path
     id="path8558"
     clip-path="url(#SVGID_2_-7)"
     d="m 50.4,71.4 c 2.6,-1.5 5.2,-1.6 7.6,0"
     class="st8"
     style="fill:none;stroke:#444444;stroke-miterlimit:10"
     transform="matrix(1.2982472,0,0,1.468212,-13.906374,-43.704246)" /><rect
     id="rect8560"
     clip-path="url(#SVGID_2_-7)"
     height="14.5"
     width="21.4"
     class="st8"
     y="66"
     x="58.099998"
     style="fill:none;stroke:#444444;stroke-miterlimit:10"
     transform="matrix(1.2982472,0,0,1.468212,-13.906374,-43.704246)" /><rect
     id="rect8562"
     clip-path="url(#SVGID_2_-7)"
     height="14.5"
     width="21.4"
     class="st8"
     y="66"
     x="29.1"
     style="fill:none;stroke:#444444;stroke-miterlimit:10"
     transform="matrix(1.2982472,0,0,1.468212,-13.906374,-43.704246)" /><path
     id="path8564"
     clip-path="url(#SVGID_2_-7)"
     d="M 28.8,74 C 26.3,75.7 20.4,71.5 15.6,64.6"
     class="st8"
     style="fill:none;stroke:#444444;stroke-miterlimit:10"
     transform="matrix(1.2982472,0,0,1.468212,-13.906374,-43.704246)" /><path
     id="path8566"
     clip-path="url(#SVGID_2_-7)"
     d="m 79.8,74 c 2.2,1.5 7.6,-2.3 11.9,-8.5"
     class="st8"
     style="fill:none;stroke:#444444;stroke-miterlimit:10"
     transform="matrix(1.2982472,0,0,1.468212,-13.906374,-43.704246)" /><path
     id="path8568"
     clip-path="url(#SVGID_2_-7)"
     d="m 50.4,74.4 c 2.6,-1.5 5.2,-1.6 7.6,0"
     class="st8"
     style="fill:none;stroke:#444444;stroke-miterlimit:10"
     transform="matrix(1.2982472,0,0,1.468212,-13.906374,-43.704246)" /><line
     id="line8570"
     clip-path="url(#SVGID_2_-7)"
     y2="94"
     x2="57.099998"
     y1="104"
     x1="56.900002"
     class="st9"
     transform="matrix(1.2982472,0,0,1.468212,-13.906374,-43.704246)"
     style="fill:#ff7900" /><line
     id="line8572"
     clip-path="url(#SVGID_2_-7)"
     y2="94"
     x2="57.099998"
     y1="104"
     x1="56.900002"
     class="st10"
     style="fill:none;stroke:#000000;stroke-width:0.25;stroke-miterlimit:10"
     transform="matrix(1.2982472,0,0,1.468212,-13.906374,-43.704246)" /><line
     id="line8574"
     clip-path="url(#SVGID_2_-7)"
     y2="93"
     x2="63"
     y1="103"
     x1="63"
     class="st9"
     transform="matrix(1.2982472,0,0,1.468212,-13.906374,-43.704246)"
     style="fill:#ff7900" /><line
     id="line8576"
     clip-path="url(#SVGID_2_-7)"
     y2="93"
     x2="63"
     y1="103"
     x1="63"
     class="st10"
     style="fill:none;stroke:#000000;stroke-width:0.25;stroke-miterlimit:10"
     transform="matrix(1.2982472,0,0,1.468212,-13.906374,-43.704246)" /><line
     id="line8578"
     clip-path="url(#SVGID_2_-7)"
     y2="104"
     x2="60"
     y1="94"
     x1="60"
     class="st9"
     transform="matrix(1.2982472,0,0,1.468212,-13.906374,-43.704246)"
     style="fill:#ff7900" /><line
     id="line8580"
     clip-path="url(#SVGID_2_-7)"
     y2="104"
     x2="60"
     y1="94"
     x1="60"
     class="st10"
     style="fill:none;stroke:#000000;stroke-width:0.25;stroke-miterlimit:10"
     transform="matrix(1.2982472,0,0,1.468212,-13.906374,-43.704246)" /><line
     id="line8582"
     clip-path="url(#SVGID_2_-7)"
     y2="98"
     x2="66"
     y1="98"
     x1="42"
     class="st9"
     transform="matrix(1.2982472,0,0,1.468212,-13.906374,-43.704246)"
     style="fill:#ff7900" /><line
     id="line8584"
     clip-path="url(#SVGID_2_-7)"
     y2="98"
     x2="66"
     y1="98"
     x1="42"
     class="st10"
     style="fill:none;stroke:#000000;stroke-width:0.25;stroke-miterlimit:10"
     transform="matrix(1.2982472,0,0,1.468212,-13.906374,-43.704246)" /><line
     id="line8586"
     clip-path="url(#SVGID_2_-7)"
     y2="94"
     x2="53.900002"
     y1="104"
     x1="54"
     class="st9"
     transform="matrix(1.2982472,0,0,1.468212,-13.906374,-43.704246)"
     style="fill:#ff7900" /><line
     id="line8588"
     clip-path="url(#SVGID_2_-7)"
     y2="94"
     x2="53.900002"
     y1="104"
     x1="54"
     class="st10"
     style="fill:none;stroke:#000000;stroke-width:0.25;stroke-miterlimit:10"
     transform="matrix(1.2982472,0,0,1.468212,-13.906374,-43.704246)" /><line
     id="line8590"
     clip-path="url(#SVGID_2_-7)"
     y2="94"
     x2="48"
     y1="103"
     x1="48"
     class="st9"
     transform="matrix(1.2982472,0,0,1.468212,-13.906374,-43.704246)"
     style="fill:#ff7900" /><line
     id="line8592"
     clip-path="url(#SVGID_2_-7)"
     y2="94"
     x2="48"
     y1="103"
     x1="48"
     class="st10"
     style="fill:none;stroke:#000000;stroke-width:0.25;stroke-miterlimit:10"
     transform="matrix(1.2982472,0,0,1.468212,-13.906374,-43.704246)" /><line
     id="line8594"
     clip-path="url(#SVGID_2_-7)"
     y2="104"
     x2="51"
     y1="94"
     x1="51"
     class="st9"
     transform="matrix(1.2982472,0,0,1.468212,-13.906374,-43.704246)"
     style="fill:#ff7900" /><line
     id="line8596"
     clip-path="url(#SVGID_2_-7)"
     y2="104"
     x2="51"
     y1="94"
     x1="51"
     class="st10"
     style="fill:none;stroke:#000000;stroke-width:0.25;stroke-miterlimit:10"
     transform="matrix(1.2982472,0,0,1.468212,-13.906374,-43.704246)" /><line
     id="line8598"
     clip-path="url(#SVGID_2_-7)"
     y2="94"
     x2="44.900002"
     y1="102.1"
     x1="44.900002"
     class="st9"
     transform="matrix(1.2982472,0,0,1.468212,-13.906374,-43.704246)"
     style="fill:#ff7900" /><line
     id="line8600"
     clip-path="url(#SVGID_2_-7)"
     y2="94"
     x2="44.900002"
     y1="102.1"
     x1="44.900002"
     class="st10"
     style="fill:none;stroke:#000000;stroke-width:0.25;stroke-miterlimit:10"
     transform="matrix(1.2982472,0,0,1.468212,-13.906374,-43.704246)" /><path
     id="path8602"
     clip-path="url(#SVGID_2_-7)"
     d="m 64.8,101.7 c -1.5,3.2 -20.3,2.8 -21.3,-0.2 -0.9,-2.6 -3.1,-10 -0.4,-8.7 5.4,2.7 20.2,1.3 21.7,0 2.7,-2.3 0.5,8 0,8.9 z"
     class="st11"
     style="fill:none;stroke:#e19c14;stroke-width:3;stroke-miterlimit:10"
     transform="matrix(1.2982472,0,0,1.468212,-13.906374,-43.704246)" /><path
     id="path8604"
     clip-path="url(#SVGID_2_)"
     d="m 55.1,122.6 c -3.6,-0.1 -6.6,2.3 -6.7,5.4"
     class="st2"
     style="fill:none;stroke:#593d21;stroke-width:0.25;stroke-miterlimit:10"
     transform="matrix(1.2982472,0,0,1.468212,-13.906374,-43.704246)" /><path
     id="path8606"
     clip-path="url(#SVGID_2_)"
     d="m 53.7,130.4 c 3.5,0.1 6.3,2.2 6.2,4.8"
     class="st2"
     style="fill:none;stroke:#593d21;stroke-width:0.25;stroke-miterlimit:10"
     transform="matrix(1.2982472,0,0,1.468212,-13.906374,-43.704246)" /><path
     id="path8608"
     clip-path="url(#SVGID_2_)"
     d="m 54.7,141.4 c -2.5,-0.1 -4.6,2.4 -4.7,5.4"
     class="st2"
     style="fill:none;stroke:#593d21;stroke-width:0.25;stroke-miterlimit:10"
     transform="matrix(1.2982472,0,0,1.468212,-13.906374,-43.704246)" /><path
     id="path8610"
     clip-path="url(#SVGID_2_)"
     d="m 51,156.5 c 2.5,0.1 4.5,1.9 4.5,4"
     class="st2"
     style="fill:none;stroke:#593d21;stroke-width:0.25;stroke-miterlimit:10"
     transform="matrix(1.2982472,0,0,1.468212,-13.906374,-43.704246)" /><path
     id="path8612"
     clip-path="url(#SVGID_2_)"
     d="m 53,135 c 3.3,0.1 6,2.4 5.9,5.3"
     class="st2"
     style="fill:none;stroke:#593d21;stroke-width:0.25;stroke-miterlimit:10"
     transform="matrix(1.2982472,0,0,1.468212,-13.906374,-43.704246)" /><path
     id="path8614"
     clip-path="url(#SVGID_2_-7)"
     d="m 115,60.8 c -0.7,5.1 -0.2,12.9 1.3,21.4 L 123,81 c -0.4,-9.1 -3.7,-16.8 -8,-20.2 z"
     class="st12"
     style="fill:#ffffff;stroke:#2b2b2b;stroke-width:0.75;stroke-miterlimit:10"
     transform="matrix(1.2035613,0.56163735,-0.67196262,1.1012134,26.711055,-48.586284)" /><path
     id="path8616"
     clip-path="url(#SVGID_2_-7)"
     d="m 123.9,80.7 5.3,-1 c -1.5,-8 -3.7,-15 -6,-19.5 -1.8,5.1 -1.7,12.7 0.7,20.5 z"
     class="st12"
     style="fill:#ffffff;stroke:#2b2b2b;stroke-width:0.75;stroke-miterlimit:10"
     transform="matrix(1.2035613,0.56163735,-0.67196262,1.1012134,26.83142,-48.530121)" /><path
     id="path8618"
     clip-path="url(#SVGID_2_-7)"
     d="m 123.3,60.2 c -1.9,-3.7 -3.8,-5.9 -5.4,-5.6 -1.5,0.3 -2.5,2.5 -2.9,6.1 4.3,3.5 7.6,11.1 8,20.1 l 0.9,-0.2 c -2.4,-7.7 -2.5,-15.3 -0.6,-20.4 z"
     class="st12"
     style="fill:#ffffff;stroke:#2b2b2b;stroke-width:0.75;stroke-miterlimit:10"
     transform="matrix(1.2035613,0.56163735,-0.67196262,1.1012134,26.711055,-48.586284)" /><line
     id="line8620"
     clip-path="url(#SVGID_2_-7)"
     y2="80.5"
     x2="123.5"
     y1="78.5"
     x1="123.2"
     class="st12"
     style="fill:#ffffff;stroke:#2b2b2b;stroke-width:0.75;stroke-miterlimit:10"
     transform="matrix(1.2035613,0.56163735,-0.67196262,1.1012134,26.711055,-48.586284)" /><path
     style="fill:none;stroke:#e19c14;stroke-width:1.72577071;stroke-miterlimit:10"
     class="st15"
     d="m 43.605979,16.198804 c -5.842112,-5.432384 -14.280719,-3.230066 -18.95441,4.99192 -3.764917,6.460132 -3.115793,15.416226 1.557897,19.674041 3.764917,3.523708 9.217556,2.055496 12.203524,-3.230067 2.46667,-4.110994 1.947371,-9.83702 -1.038598,-12.626624 -2.336845,-2.202317 -5.842112,-1.321389 -7.789483,2.055498 -1.557897,2.642781 -1.298247,6.313311 0.649124,8.075165 1.557896,1.468213 3.764917,0.880928 4.933339,-1.321391 1.038598,-1.761853 0.778948,-3.964171 -0.389474,-5.138741"
     id="path8646" /><path
     style="fill:none;stroke:#e19c14;stroke-width:1.72577071;stroke-miterlimit:10"
     class="st15"
     d="M 43.216505,35.872844 C 49.967391,32.202313 51.784937,22.512114 47.111247,14.290128 43.476154,7.683174 36.20597,4.7467501 30.753331,7.683174 c -4.284215,2.34914 -5.452638,8.51563 -2.466669,13.801192 2.336845,4.257815 7.14036,6.16649 10.515802,4.257815 2.72632,-1.468212 3.505268,-5.432384 1.557897,-8.809271 -1.557897,-2.642782 -4.543865,-3.964172 -6.750886,-2.642782 -1.817546,1.027749 -2.20702,3.523709 -1.038597,5.726026 0.908773,1.761854 2.856144,2.49596 4.284216,1.761854"
     id="path8648" /><path
     style="fill:none;stroke:#e19c14;stroke-width:1.72577071;stroke-miterlimit:10"
     class="st15"
     d="m 37.244568,43.654367 c 6.750885,-3.67053 8.568432,-13.360729 3.894741,-21.582716 -3.635092,-6.606953 -11.035101,-9.543377 -16.48774,-6.606953 -4.284215,2.349139 -5.452638,8.515629 -2.466669,13.801191 2.336845,4.257815 7.14036,6.166492 10.515802,4.257815 2.72632,-1.468211 3.505268,-5.432384 1.557897,-8.809272 -1.557897,-2.642781 -4.543865,-3.964171 -6.750886,-2.642781 -1.817546,1.027748 -2.20702,3.523709 -1.038597,5.726027 0.908773,1.761855 2.856144,2.49596 4.284215,1.761855"
     id="path8650" /><path
     style="fill:none;stroke:#e19c14;stroke-width:1.72577071;stroke-miterlimit:10"
     class="st15"
     d="m 42.956856,39.983837 c 2.20702,-8.075166 -2.72632,-16.150332 -11.294751,-18.059007 -6.750886,-1.468212 -13.761421,2.642782 -15.578967,9.102914 -1.428072,5.138742 1.817546,10.424305 7.140359,11.598874 4.284216,0.880927 8.828082,-1.615033 9.996504,-5.872848 0.908773,-3.376887 -1.168422,-6.606953 -4.67369,-7.341059 -2.726319,-0.587285 -5.582463,1.027748 -6.361411,3.67053 -0.649124,2.202318 0.778948,4.257815 2.985968,4.698278 1.817546,0.440464 3.635093,-0.734105 4.024567,-2.349138"
     id="path8652" /><path
     style="fill:none;stroke:#e19c14;stroke-width:1.72577071;stroke-miterlimit:10"
     class="st15"
     d="m 42.437557,36.75377 c 2.726319,-6.16649 0,-13.507549 -6.101762,-16.443973 -4.93334,-2.34914 -10.645628,-0.293643 -12.852648,4.698277 -1.817546,3.964173 0,8.662452 3.894742,10.571127 3.115793,1.468213 6.88071,0.146822 8.308782,-2.936424 1.168423,-2.49596 0,-5.579205 -2.46667,-6.753775 -1.947371,-1.027748 -4.41404,-0.146821 -5.322813,1.908676 -0.778949,1.615033 0,3.523708 1.557896,4.257815 1.298247,0.587284 2.856144,0 3.375443,-1.174571"
     id="path8654" /><path
     style="fill:none;stroke:#e19c14;stroke-width:1.72577071;stroke-miterlimit:10"
     class="st15"
     d="m 70.349872,36.019665 c 2.856144,-7.487881 0.25965,-16.150332 -5.842112,-19.527219 -4.93334,-2.642782 -10.645628,-0.146822 -12.982473,5.872848 -1.817546,4.698278 -0.129824,10.277483 3.764917,12.479801 3.115794,1.761855 6.880711,0 8.308783,-3.670529 1.168422,-3.083246 0.129825,-6.606954 -2.46667,-8.075167 -1.947371,-1.174569 -4.414041,0 -5.322814,2.349139 -0.778948,1.908676 0,4.257815 1.557897,5.138742 1.298247,0.734106 2.856144,0 3.375443,-1.468211"
     id="path8656" /><path
     style="fill:none;stroke:#e19c14;stroke-width:1.72577071;stroke-miterlimit:10"
     class="st15"
     d="m 29.584909,20.309797 c 1.947371,-6.606953 8.438607,-9.543377 14.670194,-6.753775 4.933339,2.34914 7.659659,8.368808 6.101762,13.654371 -1.168423,4.257815 -5.452639,6.16649 -9.34738,4.257815 -3.115794,-1.468212 -4.93334,-5.432385 -3.894742,-8.809272 0.778948,-2.642782 3.505268,-3.964172 5.971937,-2.789603 2.077196,0.880928 3.115794,3.523708 2.46667,5.579205 -0.519299,1.761855 -2.20702,2.49596 -3.894742,1.761855 -1.298247,-0.587284 -1.947371,-2.202319 -1.557896,-3.523708"
     id="path8658" /><path
     style="fill:none;stroke:#e19c14;stroke-width:1.72577071;stroke-miterlimit:10"
     class="st15"
     d="m 44.644577,33.670526 c -1.817546,-6.606954 1.947371,-13.360729 8.308782,-15.122583 5.192989,-1.468212 10.515803,1.761854 12.0737,7.047417 1.168422,4.257815 -1.168423,8.51563 -5.322814,9.690199 -3.375443,0.880927 -6.750886,-1.174569 -7.659659,-4.551457 -0.778948,-2.642782 0.778949,-5.432384 3.375443,-6.16649 2.077196,-0.587285 4.284216,0.734106 4.93334,2.936423 0.519299,1.761854 -0.519299,3.523709 -2.207021,3.964173 -1.298247,0.440463 -2.726319,-0.440464 -3.115793,-1.908675"
     id="path8660" /><path
     style="fill:none;stroke:#e19c14;stroke-width:1.72577071;stroke-miterlimit:10"
     class="st15"
     d="M 70.479697,23.539863 C 69.441099,15.171055 61.781441,10.325956 53.472658,12.821916 46.851597,14.877413 42.048083,21.92483 42.956856,28.678605 c 0.649123,5.432385 5.582463,8.515629 10.905276,6.900596 4.284216,-1.321391 7.270185,-5.872848 6.750886,-10.130663 -0.389474,-3.523708 -3.505267,-5.432384 -7.010535,-4.404635 -2.726319,0.880927 -4.67369,3.670529 -4.284216,6.460132 0.25965,2.202318 2.336845,3.523709 4.414041,2.789603 1.687721,-0.587285 2.985968,-2.34914 2.726319,-4.110993"
     id="path8662" /><path
     style="fill:none;stroke:#e19c14;stroke-width:1.72577071;stroke-miterlimit:10"
     class="st15"
     d="M 58.535823,37.781519 C 65.806007,40.130658 72.816542,34.25781 74.244614,24.714432 75.413037,17.079731 71.64812,9.298207 65.935832,7.389532 61.262142,5.9213194 56.848101,9.5918503 55.809503,15.75834 c -0.778948,4.991921 1.687722,9.83702 5.322814,11.158411 2.985969,1.027747 5.842113,-1.468213 6.491236,-5.285563 0.519299,-3.083245 -1.038598,-6.313311 -3.375443,-7.047417 -1.94737,-0.587285 -3.764917,0.880927 -4.154391,3.376886 -0.259649,2.055497 0.649124,4.110994 2.207021,4.551457"
     id="path8664" /><path
     style="fill:none;stroke:#e19c14;stroke-width:1.72577071;stroke-miterlimit:10"
     class="st15"
     d="m 49.448092,39.10291 c 7.270184,2.349139 14.28072,-3.523709 15.708791,-13.067087 1.168423,-7.634702 -2.596494,-15.416225 -8.308782,-17.3249 -4.67369,-1.4682126 -9.087731,2.202317 -10.126328,8.368808 -0.778949,4.99192 1.687721,9.83702 5.322813,11.158411 2.985969,1.027747 5.842113,-1.468213 6.491237,-5.285564 0.519298,-3.083245 -1.038598,-6.313311 -3.375443,-7.047416 -1.947371,-0.587285 -3.764917,0.880926 -4.154391,3.376886 -0.25965,2.055497 0.649123,4.110993 2.20702,4.551457"
     id="path8666" /><path
     style="fill:none;stroke:#e19c14;stroke-width:1.72577071;stroke-miterlimit:10"
     class="st15"
     d="M 44.774402,39.837016 C 52.044586,42.186155 59.055121,36.313307 60.483193,26.769929 61.651616,19.135227 57.886699,11.353704 52.174411,9.4450286 47.500721,7.9768161 43.08668,11.647347 42.048083,17.813837 c -0.778949,4.99192 1.687721,9.837019 5.322813,11.15841 2.985969,1.027749 5.842113,-1.468212 6.491236,-5.285562 0.519299,-3.083246 -1.038597,-6.313312 -3.375442,-7.047418 -1.947371,-0.587285 -3.764917,0.880928 -4.154392,3.376887 -0.259649,2.055497 0.649124,4.110994 2.207021,4.551458"
     id="path8668" /><path
     style="fill:none;stroke:#e19c14;stroke-width:1.72577071;stroke-miterlimit:10"
     class="st15"
     d="m 57.627049,16.051982 c 5.322814,-3.376887 11.943875,-0.734105 14.800019,6.16649 2.336845,5.432384 0.649124,12.039338 -3.505267,14.828942 -3.375443,2.202317 -7.659659,0.440463 -9.477205,-3.964173 -1.428072,-3.523708 -0.389475,-7.781523 2.336845,-9.396556 2.20702,-1.468213 4.933339,-0.293644 6.101762,2.49596 0.908773,2.202317 0.259649,4.991921 -1.428072,6.019668 -1.428072,0.880928 -3.115794,0.146822 -3.894742,-1.615033 -0.649124,-1.468211 -0.129825,-3.230066 0.908773,-3.817351"
     id="path8670" /><path
     style="fill:none;stroke:#e19c14;stroke-width:1.72577071;stroke-miterlimit:10"
     class="st15"
     d="m 94.497274,28.825426 c -1.0386,-8.368808 -8.698259,-13.213907 -17.007042,-10.717947 -6.621061,2.055497 -11.294751,9.102914 -10.515802,15.856689 0.649123,5.432384 5.582463,8.51563 10.905276,6.900597 4.284216,-1.321391 7.270185,-5.872848 6.750886,-10.130663 -0.389474,-3.523709 -3.635092,-5.432384 -7.010535,-4.404637 -2.726319,0.880928 -4.67369,3.670531 -4.284216,6.460134 0.25965,2.202318 2.336845,3.523708 4.414041,2.789602 1.687721,-0.587284 2.985968,-2.349139 2.726319,-4.110993"
     id="path8672" /><path
     style="fill:none;stroke:#e19c14;stroke-width:1.72577071;stroke-miterlimit:10"
     class="st15"
     d="m 82.683221,43.067082 c 7.270185,2.34914 14.280723,-3.523708 15.708793,-13.067086 1.16842,-7.634702 -2.5965,-15.416225 -8.30878,-17.324901 -4.673693,-1.468212 -9.087734,2.202318 -10.126332,8.368808 -0.778948,4.99192 1.687722,9.837019 5.322814,11.15841 2.985968,1.027749 5.842108,-1.468211 6.491238,-5.285562 0.5193,-3.083246 -1.0386,-6.313312 -3.375445,-7.047418 -1.947371,-0.587285 -3.764917,0.880928 -4.154391,3.376888 -0.259649,2.055497 0.649124,4.110993 2.20702,4.551457"
     id="path8674" /><path
     style="fill:none;stroke:#e19c14;stroke-width:1.72577071;stroke-miterlimit:10"
     class="st15"
     d="m 73.595491,44.388473 c 7.270184,2.34914 14.280719,-3.523708 15.708791,-13.067087 1.168422,-7.634701 -2.596494,-15.416224 -8.308782,-17.3249 -4.67369,-1.468212 -9.087731,2.202318 -10.126329,8.368808 -0.778948,4.99192 1.687722,9.837019 5.322814,11.15841 2.985969,1.027749 5.842113,-1.468211 6.491236,-5.285562 0.519299,-3.083246 -1.038597,-6.313312 -3.375443,-7.194239 -1.94737,-0.587285 -3.764917,0.880927 -4.154391,3.376887 -0.259649,2.055497 0.649124,4.110994 2.207021,4.551457"
     id="path8676" /><path
     style="fill:none;stroke:#e19c14;stroke-width:1.72577071;stroke-miterlimit:10"
     class="st15"
     d="M 68.791976,45.122578 C 76.06216,47.471718 83.072695,41.59887 84.500767,32.055493 85.66919,24.42079 81.904273,16.639267 76.191985,14.730591 c -4.67369,-1.468211 -9.087731,2.202319 -10.126328,8.368808 -0.778949,4.991921 1.687721,9.837021 5.322813,11.158411 2.985969,1.027749 5.842113,-1.468211 6.491236,-5.285563 0.519299,-3.083245 -1.038597,-6.313311 -3.375442,-7.047417 -1.947371,-0.587285 -3.764917,0.880927 -4.154392,3.376888 -0.259649,2.055496 0.649124,4.110993 2.207021,4.551457"
     id="path8678" /><path
     style="fill:none;stroke:#e19c14;stroke-width:1.72577071;stroke-miterlimit:10"
     class="st15"
     d="m 81.644624,21.337545 c 5.322813,-3.376888 11.94387,-0.734106 14.80002,6.16649 2.33684,5.432385 0.64912,12.039339 -3.50527,14.828941 -3.375442,2.202318 -7.659658,0.440464 -9.477204,-3.964172 -1.428072,-3.523709 -0.389475,-7.781524 2.336845,-9.396557 2.20702,-1.468212 4.933339,-0.293642 6.101759,2.495961 0.90878,2.202318 0.25965,4.99192 -1.42807,6.019669 -1.428071,0.880927 -3.115793,0.146821 -3.894741,-1.615033 -0.649124,-1.468212 -0.129825,-3.230067 0.908773,-3.817351"
     id="path8680" /><g
     transform="matrix(1.3436018,-0.01205696,0.03629311,1.6723961,-28.80498,-63.679973)"
     class="st7"
     clip-path="url(#SVGID_2_)"
     id="g11175"><polygon
       class="st9"
       points="172.7,110.2 166.5,61.8 72.2,98.5 "
       id="polygon11147"
       style="fill:#ff7900" /><line
       class="st10"
       x1="171"
       y1="65.900002"
       x2="176.39999"
       y2="59.900002"
       id="line11149"
       style="fill:none;stroke:#ff7900;stroke-miterlimit:10" /><line
       class="st10"
       x1="172.39999"
       y1="69.400002"
       x2="184.3"
       y2="67"
       id="line11151"
       style="fill:none;stroke:#ff7900;stroke-miterlimit:10" /><line
       class="st10"
       x1="174.89999"
       y1="73.599998"
       x2="184.2"
       y2="76"
       id="line11153"
       style="fill:none;stroke:#ff7900;stroke-miterlimit:10" /><line
       class="st10"
       x1="175.60001"
       y1="80.699997"
       x2="189.2"
       y2="85.300003"
       id="line11155"
       style="fill:none;stroke:#ff7900;stroke-miterlimit:10" /><line
       class="st10"
       x1="176.39999"
       y1="87.800003"
       x2="189.5"
       y2="87.900002"
       id="line11157"
       style="fill:none;stroke:#ff7900;stroke-miterlimit:10" /><line
       class="st10"
       x1="175.2"
       y1="77.099998"
       x2="188.60001"
       y2="79.099998"
       id="line11159"
       style="fill:none;stroke:#ff7900;stroke-miterlimit:10" /><line
       class="st10"
       x1="174.60001"
       y1="70.900002"
       x2="189.7"
       y2="70.900002"
       id="line11161"
       style="fill:none;stroke:#ff7900;stroke-miterlimit:10" /><line
       class="st10"
       x1="172.2"
       y1="67.599998"
       x2="181.7"
       y2="61.700001"
       id="line11163"
       style="fill:none;stroke:#ff7900;stroke-miterlimit:10" /><line
       class="st10"
       x1="179.3"
       y1="93.699997"
       x2="190.8"
       y2="90.599998"
       id="line11165"
       style="fill:none;stroke:#ff7900;stroke-miterlimit:10" /><line
       class="st10"
       x1="177.89999"
       y1="102.3"
       x2="189.8"
       y2="100.5"
       id="line11167"
       style="fill:none;stroke:#ff7900;stroke-miterlimit:10" /><line
       class="st10"
       x1="180.10001"
       y1="106.6"
       x2="189.3"
       y2="109.5"
       id="line11169"
       style="fill:none;stroke:#ff7900;stroke-miterlimit:10" /><line
       class="st10"
       x1="180"
       y1="103.9"
       x2="193.3"
       y2="104.9"
       id="line11171"
       style="fill:none;stroke:#ff7900;stroke-miterlimit:10" /><line
       class="st10"
       x1="177.8"
       y1="100.5"
       x2="190.39999"
       y2="93.300003"
       id="line11173"
       style="fill:none;stroke:#ff7900;stroke-miterlimit:10" /></g></svg>